<svg width="210" height="62" viewBox="0 0 210 62" fill="none" xmlns="http://www.w3.org/2000/svg">
<path fill-rule="evenodd" clip-rule="evenodd" d="M10.9752 0.0820952C9.908 0.246291 8.84074 0.574676 7.93769 1.06725C6.45995 1.80612 5.22851 2.87337 4.16126 4.18691C3.01191 5.58255 2.35514 7.30657 2.43723 9.19478C2.51933 10.6725 3.2582 11.6577 4.57174 12.1503C4.83044 12.2242 5.08915 12.2814 5.34036 12.3371C5.64718 12.405 5.94283 12.4705 6.21366 12.5607C6.87043 12.7249 7.44511 12.6428 8.01978 12.3965C8.43025 12.2324 8.84071 11.904 9.25118 11.5756L9.25123 11.5756L10.2364 10.8367C10.4827 10.6725 10.8111 10.8367 10.8932 11.083C10.8932 11.5756 10.8111 12.0682 10.729 12.4786L9.7438 15.6804C9.21018 17.6097 8.65602 19.5595 8.10187 21.5093C7.54772 23.459 6.99358 25.4088 6.45995 27.3381C6.21368 28.2 5.96741 29.0414 5.72114 29.8829L5.72109 29.8831L5.72103 29.8833C5.47476 30.7247 5.22849 31.5661 4.98222 32.428C4.44112 34.4481 3.88417 36.4682 3.3253 38.4953L3.32521 38.4956C2.61222 41.0817 1.89611 43.6791 1.20579 46.3023C1.12842 46.5654 1.04813 46.8285 0.967668 47.0921C0.621279 48.227 0.271781 49.3721 0.138537 50.5713C-0.107751 51.8849 -0.0256551 53.1984 0.384826 54.4298C1.0416 56.8927 2.68352 58.5347 5.06432 59.3556C5.60779 59.5972 6.15127 59.7499 6.72742 59.9118L6.72744 59.9118C6.93457 59.97 7.14592 60.0294 7.36301 60.0945C9.66171 60.6692 12.0425 60.6692 14.4233 60.3408C16.4757 59.9303 18.446 59.2735 20.4163 58.4526C24.1928 56.8927 27.5587 54.594 30.1858 51.3102C31.253 50.0787 32.2382 48.7652 33.0592 47.3696C33.632 46.4784 34.0569 45.5379 34.4867 44.5863L34.4868 44.5861C34.6113 44.3105 34.7362 44.0339 34.8653 43.7573C35.7683 42.0333 36.4251 40.1451 36.9177 38.2569C37.3282 36.697 37.5745 34.973 37.6565 33.3311C37.7386 31.2787 37.4103 29.2263 36.7535 27.256C35.9325 24.6289 34.4548 22.3302 32.1561 20.6883C29.6111 18.9642 26.8198 18.3075 23.7823 18.718C22.5358 18.9379 21.4203 19.2889 20.2603 19.6538C20.1215 19.6975 19.982 19.7413 19.8417 19.7852C19.7596 19.8673 19.5954 19.8673 19.5133 19.8673C19.386 19.8037 19.4067 19.6907 19.4225 19.6048C19.427 19.58 19.4312 19.5574 19.4312 19.5389C19.6884 18.51 19.9292 17.4811 20.1682 16.4595L20.1683 16.4594C20.4633 15.1987 20.7557 13.9493 21.0731 12.7249C21.4015 11.4114 21.5657 10.0978 21.5657 8.70221C21.4836 6.48561 20.5805 4.59739 19.1028 2.95547C19.0357 2.88843 18.9721 2.82139 18.9098 2.75576L18.9098 2.75573C18.667 2.49984 18.4443 2.26517 18.1176 2.13451C16.5578 1.06725 14.9159 0.246291 13.0277 0.0820952C12.8635 0 12.6993 0 12.5351 0C12.0425 0 11.632 0 10.9752 0.0820952ZM25.5884 36.6149C24.0286 40.6377 21.8941 44.332 19.1849 47.698C18.1997 48.8473 17.1325 49.9966 15.901 50.8997L14.177 51.8849C14.1189 51.9042 14.0562 51.9282 13.9899 51.9535C13.7757 52.0353 13.5248 52.1312 13.2739 52.1312C12.1246 52.2953 11.4678 51.8849 11.2215 50.8176C10.9752 49.9966 10.8932 49.1757 10.9752 48.3547C11.3036 45.153 12.453 42.2796 13.8486 39.4883C15.5726 35.9582 17.625 32.7564 20.4984 30.0472C21.4015 29.1442 22.4687 28.3232 23.6181 27.8306C23.6806 27.8098 23.7419 27.7889 23.8021 27.7684C24.2163 27.6274 24.5837 27.5023 25.0137 27.5023C25.6705 27.5023 26.1631 27.7486 26.4915 28.3232C26.6556 28.6516 26.7377 28.8979 26.8198 29.2263C26.9019 29.7189 26.9019 30.1293 26.9019 30.4577C26.8198 32.6743 26.2452 34.6446 25.5884 36.6149ZM39.6961 54.594C41.0918 58.0421 43.8009 60.0124 47.249 60.9976C49.6298 61.6543 52.0927 61.4901 54.4735 60.8334C56.6901 60.1766 58.7425 59.1093 60.7128 57.7958C63.3399 55.9897 65.5565 53.7731 67.5268 51.3102C70.1539 47.8621 72.1242 44.2499 73.1914 40.063C73.684 38.0106 73.9303 36.0403 74.0124 33.9879C74.0727 33.3847 74.0001 32.8258 73.9247 32.2461C73.8975 32.0368 73.87 31.8249 73.8482 31.6071C73.6019 28.98 72.863 26.5171 71.3032 24.3826C69.5792 22.0018 67.2805 20.5241 64.4071 19.9494C62.1905 19.5389 59.9739 19.7852 57.7573 20.442C54.3914 21.345 51.518 23.1512 48.8909 25.5319C45.0324 28.98 42.159 33.1669 40.2708 38.0106C39.0394 41.1302 38.3826 44.332 38.3005 48.6831C38.3005 50.0787 38.7931 52.3774 39.6961 54.594ZM49.6298 45.6455C50.8612 40.8019 53.1599 36.5329 56.3617 32.6743C57.1826 31.7713 58.0857 30.8682 59.0709 30.1293C59.6455 29.6368 60.2202 29.3084 60.9591 29.1442C62.1084 28.7337 62.9294 29.3905 63.1757 30.2114C63.3183 30.7821 63.4059 31.3802 63.4384 31.974C59.1842 32.0267 55.7517 35.4917 55.7517 39.7584C55.7517 41.954 56.6606 43.9373 58.1227 45.3526C57.9231 45.6459 57.7192 45.9353 57.511 46.2202C56.5259 47.6159 55.3765 48.9294 54.1451 50.1608L54.0314 50.2557L54.0313 50.2558C53.5651 50.6453 53.0341 51.0889 52.5032 51.3923C52.0927 51.6386 51.6822 51.8849 51.1896 51.967C50.5328 52.2132 49.7119 51.8028 49.4656 51.146C49.4245 50.9818 49.3835 50.8381 49.3424 50.6945L49.3424 50.6944C49.3014 50.5507 49.2603 50.4071 49.2193 50.2429C49.1372 49.7504 49.1372 49.3399 49.1372 48.8473C49.1372 47.78 49.3835 46.7128 49.6298 45.6455ZM76.6555 54.594C78.0511 58.0421 80.7603 60.0124 84.2084 60.9976C86.5891 61.6543 89.052 61.4901 91.4328 60.8334C93.6494 60.1766 95.7018 59.1093 97.6721 57.7958C100.299 55.9897 102.516 53.7731 104.486 51.3102C107.113 47.8621 109.084 44.2499 110.151 40.063C110.643 38.0106 110.89 36.0403 110.972 33.9879C111.032 33.3847 110.959 32.8258 110.884 32.2461C110.857 32.0368 110.829 31.8248 110.808 31.6071C110.561 28.98 109.822 26.5171 108.263 24.3826C106.539 22.0018 104.24 20.5241 101.366 19.9494C99.1499 19.5389 96.9333 19.7852 94.7167 20.442C91.3507 21.345 88.4774 23.1512 85.8503 25.5319C81.9918 28.98 79.1184 33.1669 77.2302 38.0106C75.9987 41.1302 75.342 44.332 75.2599 48.6831C75.2599 50.0787 75.7524 52.3774 76.6555 54.594ZM86.5891 45.6455C87.8206 40.8019 90.1193 36.5329 93.321 32.6743C94.142 31.7713 95.0451 30.8682 96.0302 30.1293C96.6049 29.6368 97.1796 29.3084 97.9184 29.1442C99.0678 28.7337 99.8887 29.3905 100.135 30.2114C100.278 30.7819 100.365 31.38 100.398 31.9736C100.378 31.9735 100.358 31.9734 100.338 31.9734C96.0389 31.9734 92.5535 35.4589 92.5535 39.7584C92.5535 42.0014 93.5021 44.0229 95.02 45.4435C94.8402 45.7058 94.6571 45.9648 94.4704 46.2202C93.4852 47.6159 92.3359 48.9294 91.1044 50.1608L90.9908 50.2557C90.5245 50.6452 89.9935 51.0889 89.4625 51.3923C89.052 51.6386 88.6416 51.8849 88.149 51.967C87.4922 52.2132 86.6712 51.8028 86.425 51.146C86.3839 50.9818 86.3429 50.8381 86.3018 50.6945L86.3018 50.6944L86.3016 50.6938C86.2607 50.5504 86.2197 50.4069 86.1787 50.2429C86.0966 49.7504 86.0966 49.3399 86.0966 48.8473C86.0966 47.7801 86.3428 46.7129 86.5891 45.6456L86.5891 45.6455ZM125.62 2.46289C124.307 2.87337 123.157 3.53014 122.008 4.3511C120.776 5.25416 119.791 6.40351 119.135 7.88125C118.067 10.3441 119.217 12.5607 121.187 13.7101C121.564 13.9361 122.01 14.0239 122.398 14.1002L122.501 14.1206C123.732 14.2027 124.717 13.7922 125.62 13.0533C125.784 12.9302 125.949 12.7865 126.113 12.6428C126.277 12.4992 126.441 12.3555 126.605 12.2323C126.77 12.1503 127.016 12.0682 127.262 12.2323C127.426 12.3965 127.508 12.6428 127.426 12.807C127.426 13.0259 127.353 13.2448 127.28 13.4637L127.28 13.4638C127.244 13.5733 127.207 13.6827 127.18 13.7922L125.21 20.442C124.389 23.0691 123.65 25.6961 122.911 28.3232C122.665 29.0621 122.254 29.5547 121.597 29.8831C120.202 30.704 118.724 31.5249 117.247 32.3458L117.246 32.3459C116.179 32.9206 115.194 33.7416 114.291 34.6446C113.552 35.3835 113.059 36.2045 112.813 37.2717C112.485 38.2569 112.731 39.242 113.142 40.2272C113.224 40.3914 113.388 40.5556 113.47 40.6377C114.537 41.3765 115.522 41.9512 116.836 41.6228C117.575 41.4586 118.314 41.2123 118.97 40.8019C119.052 40.7198 119.299 40.5556 119.381 40.7198C119.436 40.7745 119.417 40.9022 119.399 41.0299C119.39 41.0938 119.381 41.1576 119.381 41.2123C119.381 41.3479 119.356 41.4586 119.334 41.5581L119.334 41.5582C119.315 41.6394 119.299 41.7132 119.299 41.787C118.671 43.6705 118.187 45.602 117.701 47.5447L117.7 47.5449C117.551 48.1425 117.401 48.7412 117.246 49.3399C116.918 50.5713 116.754 51.8849 116.836 53.1984C117.164 56.4823 119.217 59.2735 122.501 60.1766C123.404 60.4229 124.307 60.505 125.292 60.5871C127.755 60.5871 130.053 59.9303 132.024 58.4526C132.161 58.3431 132.306 58.2336 132.452 58.1242C132.744 57.9053 133.036 57.6863 133.255 57.4674C134.322 56.5644 135.308 55.5792 135.882 54.2657C136.457 52.87 136.293 51.5565 135.472 50.4071C133.912 48.1084 130.546 48.0263 128.986 49.5862C128.808 49.7647 128.586 49.9002 128.383 50.0237C128.307 50.0706 128.233 50.1157 128.165 50.1608C128.001 50.2429 127.755 49.9966 127.755 49.9146C127.755 49.422 127.755 48.9294 127.837 48.5189C128.042 47.4927 128.268 46.4664 128.494 45.4402C128.719 44.414 128.945 43.3879 129.15 42.3617C129.396 41.3362 129.663 40.3107 129.93 39.2853L129.93 39.2828C130.197 38.2567 130.464 37.2306 130.71 36.2045C130.792 35.794 130.956 35.5477 131.367 35.3014C131.874 35.0247 132.382 34.7415 132.891 34.4573L132.892 34.4568C134.195 33.7293 135.51 32.9952 136.867 32.3459C138.099 31.6892 139.166 30.8682 140.069 29.8831C141.218 28.4874 141.711 27.0097 141.136 25.2036C140.644 23.7258 138.92 22.2481 137.114 22.9049C136.586 23.1158 136.025 23.259 135.473 23.3998C135.166 23.4781 134.862 23.5557 134.569 23.6437C134.24 23.7258 134.076 23.6437 134.158 23.3153L135.39 18.8822C135.499 18.5265 135.608 18.18 135.718 17.8335C135.937 17.1402 136.156 16.4468 136.375 15.6804C136.517 15.0425 136.674 14.3893 136.833 13.7274L136.833 13.7267C137.042 12.8555 137.255 11.9692 137.442 11.083C137.688 9.85156 137.77 8.62011 137.36 7.38867C136.867 5.82884 135.964 4.59739 134.569 3.69433C132.927 2.62708 131.203 1.88821 129.397 2.05241C128.001 1.97031 126.77 2.13451 125.62 2.46289ZM140.142 51.146C140.471 52.7058 140.799 54.2657 141.538 55.6613C142.687 57.96 145.807 60.4229 149.337 60.505C152.21 60.5871 154.92 60.0945 157.547 59.2735C159.681 58.6168 161.569 57.5495 163.375 56.3181C164.361 55.7434 165.264 55.1687 166.167 54.4298C167.398 53.3627 168.547 52.2134 169.697 51.0641L169.697 51.0639C170.764 49.9966 171.585 48.7652 172.242 47.4517C172.25 47.428 172.258 47.4045 172.266 47.3812C172.278 47.3429 172.291 47.3051 172.304 47.2677C172.445 46.8535 172.57 46.4861 172.57 46.056C172.652 45.0709 172.488 44.1678 172.16 43.1827C171.585 41.787 170.107 40.7198 168.63 40.7198C167.152 40.6377 165.838 41.0482 164.689 41.9512C162.555 43.511 160.748 45.3172 158.942 47.2054C158.061 48.1969 157.143 49.1515 156.212 50.1188C155.756 50.593 155.297 51.0703 154.837 51.5565C154.632 51.7207 154.406 51.8849 154.181 52.0491C153.955 52.2133 153.729 52.3775 153.524 52.5416C152.621 53.1163 151.718 53.3626 150.733 53.2805C149.994 53.2805 149.419 53.0342 149.091 52.0491C149.009 51.7207 149.009 51.4744 149.009 51.2281C149.009 49.6683 149.419 48.2726 149.912 46.877C149.994 46.5486 150.24 46.3023 150.568 46.3023C151.964 46.056 153.278 45.8097 154.591 45.3993C155.33 45.153 156.151 44.9068 156.972 44.6605L156.972 44.6604C161.651 43.1827 165.51 40.3914 168.383 36.4508C170.025 34.2342 171.093 31.8534 171.503 29.2263C171.749 28.159 171.667 27.0918 171.503 26.0245C171.01 23.89 168.712 21.0987 166.003 20.3599C164.689 19.9494 163.458 19.7031 162.144 19.7031C161.685 19.7359 161.213 19.7425 160.743 19.7491C160.037 19.7589 159.337 19.7687 158.696 19.8673C155.987 20.3599 153.606 21.4271 151.472 23.0691C149.419 24.6289 147.613 26.435 146.053 28.4874C142.195 33.8237 139.814 39.7346 139.732 46.4665C139.732 48.0263 139.814 49.5862 140.142 51.146ZM161.159 29.801C161.077 29.9651 160.995 30.2114 160.913 30.4577C159.599 32.5922 158.039 34.5625 155.905 35.9582C155.37 36.3323 154.731 36.5673 154.101 36.7989C153.764 36.9231 153.429 37.0464 153.113 37.1896C153.113 37.1896 152.949 37.1075 152.949 37.0254C152.949 36.9433 152.949 36.7791 153.031 36.7791C153.19 36.4798 153.345 36.1767 153.5 35.873C154.067 34.7609 154.638 33.6416 155.412 32.6743C156.315 31.525 157.136 30.5398 158.286 29.7189C158.86 29.3084 159.517 28.98 160.256 28.8158C160.502 28.8158 160.748 28.8158 160.995 29.0621C161.077 29.1442 161.159 29.3084 161.241 29.4726C161.241 29.5547 161.241 29.7189 161.159 29.801ZM177.242 55.9897C177.817 58.2884 179.212 59.8482 181.675 60.3408C182.414 60.505 183.235 60.5871 183.974 60.505C185.862 60.505 187.176 59.6019 187.915 57.8779C188.161 57.2211 188.325 56.5644 188.407 55.8255C188.438 55.5523 188.471 55.2764 188.504 54.9987L188.504 54.9983C188.651 53.7737 188.802 52.5147 188.736 51.3102C188.736 51.146 188.756 51.0023 188.777 50.8587C188.797 50.715 188.818 50.5713 188.818 50.4071L189.557 45.7276C190.131 42.2796 191.034 38.9136 192.84 35.8761C193.497 34.7267 194.154 33.5774 194.975 32.5101C195.878 31.1145 197.109 30.0472 198.505 29.2263C199.736 28.4874 200.475 28.5695 201.46 29.5547C201.655 29.7495 201.799 29.9444 201.972 30.18L201.972 30.1801C202.007 30.227 202.043 30.2755 202.08 30.326C202.092 30.3423 202.105 30.3589 202.117 30.3756C202.24 30.5809 202.343 30.7861 202.446 30.9914C202.548 31.1966 202.651 31.4018 202.774 31.6071C203.102 32.0176 203.431 32.2638 203.923 32.428C205.237 32.8385 206.55 32.7564 207.782 32.0176C208.521 31.4429 209.095 30.7861 209.424 29.9651C210.245 27.9948 210.163 26.1066 209.342 24.1363C208.357 21.9197 206.633 20.7704 204.252 20.6062C203.431 20.5241 202.692 20.5241 201.871 20.6062C200.886 20.6062 199.901 20.8525 199.08 21.2629C197.191 22.2481 195.385 23.3153 193.826 24.7931C193.743 24.8752 193.579 25.0394 193.415 25.1215C193.415 25.2036 193.251 25.1215 193.251 25.1215C193.114 24.9159 193.005 24.7246 192.902 24.5416C192.757 24.2862 192.621 24.0471 192.43 23.8079C190.788 21.1808 188.407 19.7852 185.287 19.7031C183.317 19.621 181.593 20.1957 179.951 21.0987C177.817 22.2481 176.257 23.89 175.108 26.0245C174.451 27.3381 174.287 28.7337 174.533 30.2114C174.697 31.1966 175.19 32.0176 176.011 32.5922C176.996 33.4132 178.145 33.4953 179.212 32.9206C179.951 32.5101 180.526 32.0997 180.936 31.4429C181.429 30.7861 182.086 30.3756 182.825 30.0472C182.989 29.9651 183.153 29.8831 183.317 29.8831C183.399 29.8831 183.563 29.9651 183.563 29.9651C183.646 30.0472 183.646 30.1293 183.646 30.2114L183.399 30.704C182.414 32.2638 181.593 33.9879 180.936 35.7119C180.608 36.6149 180.198 37.518 179.787 38.4211C178.966 40.3914 178.309 42.4438 177.817 44.4962C177.324 46.877 176.914 49.2578 176.996 51.7207C176.996 51.9503 176.994 52.1821 176.991 52.4154L176.991 52.42C176.98 53.6034 176.968 54.8251 177.242 55.9897Z" fill="white" fill-opacity="0.4"/>
</svg>
