<svg width="193" height="40" viewBox="0 0 193 40" fill="none" xmlns="http://www.w3.org/2000/svg">
<path fill-rule="evenodd" clip-rule="evenodd" d="M192 13.8C192 9.31958 192 7.07937 191.128 5.36808C190.361 3.86278 189.137 2.63893 187.632 1.87195C185.921 1 183.68 1 179.2 1H13.8C9.31958 1 7.07937 1 5.36808 1.87195C3.86278 2.63893 2.63894 3.86278 1.87195 5.36808C1 7.07937 1 9.31958 1 13.8V26.2C1 30.6804 1 32.9206 1.87195 34.6319C2.63894 36.1372 3.86278 37.3611 5.36808 38.1281C7.07937 39 9.31958 39 13.8 39H179.2C183.68 39 185.921 39 187.632 38.1281C189.137 37.3611 190.361 36.1372 191.128 34.6319C192 32.9206 192 30.6804 192 26.2V13.8Z" fill="#FDF56F" stroke="black"/>
<path d="M27.206 11.349V22.331H25.931V11.349H27.206ZM29.433 15.905V16.959H26.815V15.905H29.433ZM27.903 24.847V25.901H17.992V24.847H27.903ZM19.25 21.209V25.255H17.992V21.209H19.25ZM19.845 12.42C20.5703 12.42 21.2277 12.5787 21.817 12.896C22.4063 13.202 22.8653 13.6327 23.194 14.188C23.534 14.7433 23.704 15.3723 23.704 16.075C23.704 16.7777 23.534 17.4067 23.194 17.962C22.8653 18.5173 22.4063 18.9537 21.817 19.271C21.2277 19.577 20.5703 19.73 19.845 19.73C19.1197 19.73 18.4623 19.577 17.873 19.271C17.2837 18.9537 16.819 18.5173 16.479 17.962C16.1503 17.4067 15.986 16.7777 15.986 16.075C15.986 15.3723 16.1503 14.7433 16.479 14.188C16.819 13.6327 17.2837 13.202 17.873 12.896C18.4623 12.5787 19.1197 12.42 19.845 12.42ZM19.845 13.525C19.3463 13.525 18.8987 13.6383 18.502 13.865C18.1053 14.0803 17.7937 14.3807 17.567 14.766C17.3403 15.1513 17.227 15.5877 17.227 16.075C17.227 16.5623 17.3403 16.9987 17.567 17.384C17.7937 17.7693 18.1053 18.0697 18.502 18.285C18.8987 18.5003 19.3463 18.608 19.845 18.608C20.3437 18.608 20.7913 18.5003 21.188 18.285C21.5847 18.0697 21.8963 17.7693 22.123 17.384C22.361 16.9987 22.48 16.5623 22.48 16.075C22.48 15.5877 22.361 15.1513 22.123 14.766C21.8963 14.3807 21.5847 14.0803 21.188 13.865C20.7913 13.6383 20.3437 13.525 19.845 13.525ZM32.6974 12.267V18.71H31.4394V12.267H32.6974ZM32.5444 18.404C33.9271 18.404 35.1057 18.37 36.0804 18.302C37.0664 18.2227 38.0524 18.081 39.0384 17.877L39.2084 18.897C38.1771 19.1123 37.1571 19.2597 36.1484 19.339C35.1397 19.4183 33.9384 19.458 32.5444 19.458H31.4394V18.404H32.5444ZM42.7444 11.366V20.512H41.4694V11.366H42.7444ZM41.8264 13.151V14.171H37.2194V13.151H41.8264ZM41.8264 15.786V16.806H37.2194V15.786H41.8264ZM37.8824 20.631C39.4124 20.631 40.6137 20.8803 41.4864 21.379C42.3704 21.8663 42.8124 22.552 42.8124 23.436C42.8124 24.3087 42.3704 24.9887 41.4864 25.476C40.6137 25.9747 39.4124 26.224 37.8824 26.224C36.3297 26.224 35.1114 25.9803 34.2274 25.493C33.3547 25.0057 32.9184 24.32 32.9184 23.436C32.9184 22.552 33.3604 21.8663 34.2444 21.379C35.1284 20.8803 36.3411 20.631 37.8824 20.631ZM37.8824 21.651C37.1231 21.651 36.4657 21.7247 35.9104 21.872C35.3551 22.008 34.9301 22.212 34.6354 22.484C34.3407 22.7447 34.1934 23.062 34.1934 23.436C34.1934 23.7987 34.3407 24.116 34.6354 24.388C34.9301 24.6487 35.3551 24.8527 35.9104 25C36.4657 25.136 37.1231 25.204 37.8824 25.204C38.6304 25.204 39.2821 25.136 39.8374 25C40.3927 24.8527 40.8177 24.6487 41.1124 24.388C41.4071 24.116 41.5544 23.7987 41.5544 23.436C41.5544 23.062 41.4071 22.7447 41.1124 22.484C40.8177 22.212 40.3927 22.008 39.8374 21.872C39.2821 21.7247 38.6304 21.651 37.8824 21.651ZM56.8208 11.366V26.241H55.5458V11.366H56.8208ZM59.2858 17.52V18.591H56.5148V17.52H59.2858ZM54.1178 13.763V14.817H45.3118V13.763H54.1178ZM49.7828 16.092C50.4741 16.092 51.0918 16.2393 51.6358 16.534C52.1798 16.8173 52.6048 17.2197 52.9108 17.741C53.2281 18.251 53.3868 18.8347 53.3868 19.492C53.3868 20.1493 53.2281 20.7387 52.9108 21.26C52.6048 21.77 52.1798 22.1723 51.6358 22.467C51.0918 22.7503 50.4798 22.892 49.7998 22.892C49.1085 22.892 48.4851 22.7503 47.9298 22.467C47.3858 22.1723 46.9551 21.77 46.6378 21.26C46.3318 20.7387 46.1788 20.1493 46.1788 19.492C46.1788 18.8347 46.3318 18.251 46.6378 17.741C46.9551 17.2197 47.3858 16.8173 47.9298 16.534C48.4851 16.2393 49.1028 16.092 49.7828 16.092ZM49.7828 17.146C49.3295 17.146 48.9215 17.248 48.5588 17.452C48.1961 17.656 47.9128 17.9337 47.7088 18.285C47.5048 18.6363 47.4028 19.0387 47.4028 19.492C47.4028 19.9453 47.5048 20.3477 47.7088 20.699C47.9128 21.0503 48.1961 21.328 48.5588 21.532C48.9215 21.7247 49.3295 21.821 49.7828 21.821C50.2361 21.821 50.6441 21.7247 51.0068 21.532C51.3695 21.328 51.6528 21.0503 51.8568 20.699C52.0608 20.3363 52.1628 19.934 52.1628 19.492C52.1628 19.05 52.0608 18.6533 51.8568 18.302C51.6528 17.9393 51.3695 17.656 51.0068 17.452C50.6441 17.248 50.2361 17.146 49.7828 17.146ZM50.4118 11.536V14.256H49.1198V11.536H50.4118ZM69.0102 16.721V17.792H66.1032V16.721H69.0102ZM64.3862 12.794V15.65C64.3862 16.67 64.2389 17.6617 63.9442 18.625C63.6609 19.5883 63.2529 20.4553 62.7202 21.226C62.1989 21.9853 61.5869 22.5803 60.8842 23.011L60.0852 22.059C60.7425 21.6737 61.3205 21.141 61.8192 20.461C62.3179 19.781 62.7032 19.0217 62.9752 18.183C63.2472 17.3443 63.3832 16.5 63.3832 15.65V12.794H64.3862ZM64.6072 12.794V15.616C64.6072 16.4093 64.7319 17.2027 64.9812 17.996C65.2419 18.778 65.6045 19.4977 66.0692 20.155C66.5452 20.801 67.1005 21.3167 67.7352 21.702L66.9872 22.688C66.2959 22.2687 65.6952 21.6907 65.1852 20.954C64.6752 20.206 64.2842 19.3673 64.0122 18.438C63.7515 17.5087 63.6212 16.568 63.6212 15.616V12.794H64.6072ZM72.8692 11.366V26.241H71.6452V11.366H72.8692ZM69.8092 11.706V25.476H68.6192V11.706H69.8092ZM79.7206 19.016V23.504H78.4626V19.016H79.7206ZM85.2456 19.016V23.504H83.9706V19.016H85.2456ZM88.5946 23.249V24.303H75.1136V23.249H88.5946ZM81.8286 12.318C82.8713 12.318 83.8006 12.4767 84.6166 12.794C85.4326 13.1 86.0673 13.542 86.5206 14.12C86.9853 14.698 87.2176 15.3667 87.2176 16.126C87.2176 16.8853 86.9909 17.554 86.5376 18.132C86.0843 18.6987 85.4496 19.1407 84.6336 19.458C83.8176 19.764 82.8826 19.917 81.8286 19.917C80.7859 19.917 79.8566 19.764 79.0406 19.458C78.2246 19.1407 77.5843 18.6987 77.1196 18.132C76.6663 17.554 76.4396 16.8853 76.4396 16.126C76.4396 15.3667 76.6663 14.698 77.1196 14.12C77.5843 13.542 78.2246 13.1 79.0406 12.794C79.8566 12.4767 80.7859 12.318 81.8286 12.318ZM81.8286 13.338C81.0239 13.338 80.3043 13.457 79.6696 13.695C79.0463 13.9217 78.5589 14.2447 78.2076 14.664C77.8563 15.0833 77.6806 15.5707 77.6806 16.126C77.6806 16.6813 77.8563 17.1687 78.2076 17.588C78.5589 18.0073 79.0463 18.336 79.6696 18.574C80.3043 18.8007 81.0239 18.914 81.8286 18.914C82.6333 18.914 83.3473 18.8007 83.9706 18.574C84.6053 18.336 85.0983 18.0073 85.4496 17.588C85.8123 17.1687 85.9936 16.6813 85.9936 16.126C85.9936 15.5707 85.8123 15.0833 85.4496 14.664C85.0983 14.2447 84.6053 13.9217 83.9706 13.695C83.3473 13.457 82.6333 13.338 81.8286 13.338ZM90.941 26.853H90.04L90.55 23.708H91.876L90.941 26.853ZM110.081 11.383V22.28H108.806V11.383H110.081ZM112.291 15.905V16.959H109.673V15.905H112.291ZM110.761 24.847V25.901H100.867V24.847H110.761ZM102.125 21.243V25.085H100.867V21.243H102.125ZM100.459 12.437V14.97H104.794V12.437H106.052V19.781H99.2014V12.437H100.459ZM100.459 18.744H104.794V15.973H100.459V18.744ZM124.923 11.366V19.407H123.648V11.366H124.923ZM127.15 14.902V15.973H124.566V14.902H127.15ZM120.911 12.267C120.911 14.0917 120.299 15.633 119.075 16.891C117.851 18.1377 116.139 19.033 113.941 19.577L113.448 18.54C115.374 18.0753 116.87 17.35 117.936 16.364C119.001 15.378 119.534 14.222 119.534 12.896V12.267H120.911ZM120.282 12.267V13.321H114.094V12.267H120.282ZM116.831 20.104V22.008H123.648V20.104H124.923V26.037H115.556V20.104H116.831ZM116.831 25H123.648V23.028H116.831V25ZM131.23 20.274V22.059H138.659V20.274H139.917V26.037H129.972V20.274H131.23ZM131.23 25H138.659V23.062H131.23V25ZM141.685 18.183V19.22H128.255V18.183H141.685ZM135.429 11.536V12.216C135.429 13.0433 135.146 13.8027 134.579 14.494C134.024 15.174 133.293 15.7407 132.386 16.194C131.491 16.636 130.533 16.9307 129.513 17.078L129.037 16.075C129.921 15.9503 130.766 15.7067 131.57 15.344C132.386 14.97 133.049 14.511 133.559 13.967C134.069 13.4117 134.324 12.828 134.324 12.216V11.536H135.429ZM135.633 11.536V12.216C135.633 12.8167 135.888 13.3947 136.398 13.95C136.92 14.494 137.588 14.9587 138.404 15.344C139.22 15.718 140.059 15.9617 140.92 16.075L140.444 17.078C139.436 16.9307 138.478 16.6303 137.571 16.177C136.665 15.7237 135.928 15.157 135.361 14.477C134.806 13.7857 134.528 13.032 134.528 12.216V11.536H135.633ZM155.252 11.366V26.241H153.994V11.366H155.252ZM145.341 12.828V22.025H144.066V12.828H145.341ZM145.29 21.277C147.817 21.277 150.191 21.0447 152.413 20.58L152.583 21.668C151.336 21.9173 150.118 22.0987 148.928 22.212C147.738 22.3253 146.525 22.382 145.29 22.382H144.066V21.277H145.29ZM169.396 11.349V26.258H168.121V11.349H169.396ZM171.861 17.265V18.336H169.09V17.265H171.861ZM159.791 21.447C161.298 21.447 162.562 21.413 163.582 21.345C164.613 21.277 165.65 21.141 166.693 20.937L166.846 22.025C165.758 22.229 164.687 22.365 163.633 22.433C162.59 22.501 161.31 22.535 159.791 22.535H158.635V21.447H159.791ZM165.537 12.828V13.865H159.893V21.94H158.635V12.828H165.537ZM175.397 22.059H174.275L174.054 12.726H175.601L175.397 22.059ZM174.836 23.521C175.108 23.521 175.318 23.6003 175.465 23.759C175.613 23.9177 175.686 24.116 175.686 24.354C175.686 24.6147 175.613 24.8243 175.465 24.983C175.318 25.1417 175.108 25.221 174.836 25.221C174.576 25.221 174.366 25.1417 174.207 24.983C174.06 24.813 173.986 24.6033 173.986 24.354C173.986 24.116 174.06 23.9177 174.207 23.759C174.366 23.6003 174.576 23.521 174.836 23.521Z" fill="black"/>
</svg>
