<svg width="399" height="349" viewBox="0 0 399 349" fill="none" xmlns="http://www.w3.org/2000/svg">
<g clip-path="url(#clip0_52_21716)">
<rect x="11" width="376" height="348" rx="30" fill="white"/>
<g clip-path="url(#clip1_52_21716)">
<path d="M42.45 26.372V27.868H39.849V26.372H42.45ZM42.45 29.619V31.115H39.849V29.619H42.45ZM40.41 24.247V33.189H38.574V24.247H40.41ZM40.41 33.852V39.36H38.574V35.314H30.448V33.852H40.41ZM32.794 25.114C33.5647 25.114 34.2503 25.2727 34.851 25.59C35.463 25.896 35.9447 26.3267 36.296 26.882C36.6587 27.4373 36.84 28.0607 36.84 28.752C36.84 29.4547 36.6587 30.0837 36.296 30.639C35.9447 31.1943 35.463 31.625 34.851 31.931C34.2503 32.237 33.5647 32.39 32.794 32.39C32.0347 32.39 31.3433 32.237 30.72 31.931C30.108 31.625 29.6263 31.1943 29.275 30.639C28.935 30.0837 28.765 29.4547 28.765 28.752C28.765 28.0607 28.935 27.4373 29.275 26.882C29.6263 26.3267 30.108 25.896 30.72 25.59C31.3433 25.2727 32.0347 25.114 32.794 25.114ZM32.794 26.661C32.3633 26.661 31.978 26.746 31.638 26.916C31.298 27.086 31.0317 27.3297 30.839 27.647C30.6463 27.9643 30.55 28.3327 30.55 28.752C30.55 29.1827 30.6463 29.5567 30.839 29.874C31.0317 30.1913 31.298 30.435 31.638 30.605C31.978 30.775 32.3633 30.86 32.794 30.86C33.2247 30.86 33.61 30.775 33.95 30.605C34.3013 30.435 34.5733 30.1913 34.766 29.874C34.9587 29.5567 35.055 29.1883 35.055 28.769C35.055 28.3383 34.9587 27.9643 34.766 27.647C34.5733 27.3297 34.3013 27.086 33.95 26.916C33.61 26.746 33.2247 26.661 32.794 26.661ZM57.0517 31.693V33.155H43.3667V31.693H57.0517ZM51.0847 29.585V32.339H49.2657V29.585H51.0847ZM50.8127 24.502V25.046C50.8127 25.964 50.5577 26.797 50.0477 27.545C49.549 28.293 48.8407 28.9163 47.9227 29.415C47.016 29.9137 45.9734 30.2537 44.7947 30.435L44.1147 28.99C45.1234 28.854 46.0187 28.5933 46.8007 28.208C47.5827 27.8227 48.189 27.358 48.6197 26.814C49.0504 26.2587 49.2657 25.6693 49.2657 25.046V24.502H50.8127ZM51.1187 24.502V25.046C51.1187 25.6807 51.3284 26.2757 51.7477 26.831C52.167 27.375 52.7677 27.8397 53.5497 28.225C54.343 28.599 55.244 28.854 56.2527 28.99L55.5727 30.435C54.394 30.2423 53.3457 29.9023 52.4277 29.415C51.521 28.9163 50.8127 28.2987 50.3027 27.562C49.804 26.814 49.5547 25.9753 49.5547 25.046V24.502H51.1187ZM55.3517 34.396V39.36H53.5327V35.841H44.8797V34.396H55.3517ZM75.6887 31.285V32.781H62.0207V31.285H75.6887ZM74.1077 28.616V30.061H63.7037V28.616H74.1077ZM74.0227 24.74V26.219H65.5227V29.33H63.7037V24.74H74.0227ZM68.8037 33.852C70.4357 33.852 71.7107 34.0957 72.6287 34.583C73.558 35.059 74.0227 35.7333 74.0227 36.606C74.0227 37.4787 73.558 38.153 72.6287 38.629C71.7107 39.1163 70.4357 39.36 68.8037 39.36C67.1717 39.36 65.8967 39.1163 64.9787 38.629C64.0607 38.153 63.6017 37.4787 63.6017 36.606C63.6017 35.7333 64.0607 35.059 64.9787 34.583C65.8967 34.0957 67.1717 33.852 68.8037 33.852ZM68.8207 35.246C67.7327 35.246 66.894 35.365 66.3047 35.603C65.7267 35.8297 65.4377 36.164 65.4377 36.606C65.4377 37.048 65.7267 37.3823 66.3047 37.609C66.8827 37.8357 67.7213 37.949 68.8207 37.949C69.9087 37.949 70.736 37.8357 71.3027 37.609C71.8807 37.3823 72.1697 37.048 72.1697 36.606C72.1697 36.164 71.8807 35.8297 71.3027 35.603C70.736 35.365 69.9087 35.246 68.8207 35.246ZM90.4774 32.441V33.92H76.7924V32.441H90.4774ZM88.7774 24.587V28.48H80.3284V30.299H78.5264V27.188H86.9754V25.981H78.5094V24.587H88.7774ZM89.0834 29.738V31.132H78.5264V29.738H89.0834ZM84.5444 30.452V33.206H82.7084V30.452H84.5444ZM88.8624 34.889V39.275H87.0434V36.351H78.3054V34.889H88.8624Z" fill="#3E3E40"/>
<path d="M38.153 55.574V66.949H37.217V55.574H38.153ZM35.241 59.682V60.488H33.018V59.682H35.241ZM35.852 55.847V66.351H34.942V55.847H35.852ZM31.627 57.329V58.811C31.627 59.6343 31.5187 60.4317 31.302 61.203C31.094 61.9657 30.7907 62.6503 30.392 63.257C29.9933 63.855 29.5253 64.323 28.988 64.661L28.39 63.933C28.9013 63.621 29.3433 63.2007 29.716 62.672C30.0887 62.1347 30.3747 61.5323 30.574 60.865C30.7733 60.1977 30.873 59.513 30.873 58.811V57.329H31.627ZM31.822 57.329V58.811C31.822 59.4783 31.9173 60.1283 32.108 60.761C32.2987 61.3937 32.576 61.9657 32.94 62.477C33.3127 62.9797 33.7503 63.3783 34.253 63.673L33.655 64.388C33.1177 64.0587 32.654 63.608 32.264 63.036C31.874 62.464 31.575 61.814 31.367 61.086C31.1677 60.358 31.068 59.5997 31.068 58.811V57.329H31.822ZM33.889 56.926V57.732H28.676V56.926H33.889ZM48.786 56.068V59.903H41.155V56.068H48.786ZM42.104 56.848V59.11H47.824V56.848H42.104ZM50.099 61.372V62.165H39.829V61.372H50.099ZM45.445 59.695V61.684H44.483V59.695H45.445ZM48.825 63.374V66.949H47.863V64.18H40.973V63.374H48.825Z" fill="#3E3E40"/>
<rect width="343" height="38" transform="translate(28 76)" fill="white"/>
<path d="M41.664 94.808C42.0053 94.4027 42.4267 94.0827 42.928 93.848C43.4293 93.6133 43.9627 93.496 44.528 93.496C45.2107 93.496 45.8453 93.672 46.432 94.024C47.0187 94.3653 47.4827 94.8293 47.824 95.416C48.1653 95.992 48.336 96.616 48.336 97.288C48.336 98.0133 48.1653 98.6693 47.824 99.256C47.4827 99.8427 47.0187 100.307 46.432 100.648C45.8453 100.989 45.2107 101.16 44.528 101.16C43.9413 101.16 43.3867 101.037 42.864 100.792C42.352 100.536 41.9147 100.189 41.552 99.752C41.2 99.3147 40.96 98.8187 40.832 98.264L41.952 98.008C42.0907 98.616 42.3893 99.1013 42.848 99.464C43.3173 99.8267 43.8773 100.008 44.528 100.008C45.04 100.008 45.4933 99.896 45.888 99.672C46.2933 99.448 46.608 99.1333 46.832 98.728C47.0667 98.312 47.184 97.832 47.184 97.288C47.184 96.7973 47.0667 96.3547 46.832 95.96C46.608 95.5547 46.2933 95.2347 45.888 95C45.4827 94.7653 45.0293 94.648 44.528 94.648C44.112 94.648 43.7387 94.728 43.408 94.888C43.0773 95.0373 42.784 95.256 42.528 95.544L41.664 94.808ZM41.376 95.512L41.584 89.432H47.504V90.584H42.704L42.528 95.544L41.376 95.512ZM54.0327 99.96C54.9713 99.96 55.6967 99.5653 56.2087 98.776C56.7207 97.9867 56.9767 96.8027 56.9767 95.224C56.9767 93.656 56.7207 92.4773 56.2087 91.688C55.6967 90.8987 54.9713 90.504 54.0327 90.504C53.094 90.504 52.3633 90.8987 51.8407 91.688C51.3287 92.4667 51.0727 93.6453 51.0727 95.224C51.0727 96.8027 51.3287 97.9867 51.8407 98.776C52.3633 99.5653 53.094 99.96 54.0327 99.96ZM54.0327 101.112C53.2007 101.112 52.4753 100.877 51.8567 100.408C51.238 99.9387 50.758 99.2613 50.4167 98.376C50.086 97.4907 49.9207 96.44 49.9207 95.224C49.9207 94.008 50.0913 92.9627 50.4327 92.088C50.774 91.2027 51.254 90.5253 51.8727 90.056C52.4913 89.5867 53.2113 89.352 54.0327 89.352C54.854 89.352 55.574 89.5867 56.1927 90.056C56.8113 90.5253 57.286 91.2027 57.6167 92.088C57.958 92.9627 58.1287 94.008 58.1287 95.224C58.1287 96.44 57.958 97.4907 57.6167 98.376C57.286 99.2613 56.8113 99.9387 56.1927 100.408C55.574 100.877 54.854 101.112 54.0327 101.112ZM64.0016 90.152V92.504C64.0016 93.4427 63.8203 94.3813 63.4576 95.32C63.0949 96.248 62.6096 97.08 62.0016 97.816C61.3936 98.552 60.7376 99.1013 60.0336 99.464L59.3296 98.52C59.9803 98.2 60.5883 97.7147 61.1536 97.064C61.7296 96.4133 62.1883 95.6827 62.5296 94.872C62.8709 94.0613 63.0416 93.272 63.0416 92.504V90.152H64.0016ZM64.2096 90.152V92.504C64.2096 93.2293 64.3696 93.9707 64.6896 94.728C65.0203 95.4853 65.4629 96.1733 66.0176 96.792C66.5723 97.4 67.1803 97.8587 67.8416 98.168L67.1536 99.128C66.4283 98.7653 65.7669 98.2373 65.1696 97.544C64.5829 96.84 64.1136 96.0507 63.7616 95.176C63.4203 94.2907 63.2496 93.4 63.2496 92.504V90.152H64.2096ZM67.3456 89.608V90.616H59.8096V89.608H67.3456ZM70.2736 88.168V102.168H69.0736V88.168H70.2736ZM72.5936 93.864V94.872H70.0016V93.864H72.5936ZM88.5311 88.152V102.184H87.3311V88.152H88.5311ZM81.1711 89.256C81.8537 89.256 82.4617 89.4587 82.9951 89.864C83.5391 90.2587 83.9604 90.824 84.2591 91.56C84.5577 92.296 84.7071 93.1493 84.7071 94.12C84.7071 95.0907 84.5577 95.9493 84.2591 96.696C83.9604 97.432 83.5391 98.0027 82.9951 98.408C82.4617 98.8027 81.8537 99 81.1711 99C80.4777 99 79.8591 98.8027 79.3151 98.408C78.7817 98.0027 78.3657 97.432 78.0671 96.696C77.7684 95.96 77.6191 95.1013 77.6191 94.12C77.6191 93.1493 77.7684 92.296 78.0671 91.56C78.3657 90.824 78.7817 90.2587 79.3151 89.864C79.8591 89.4587 80.4777 89.256 81.1711 89.256ZM81.1711 90.328C80.7017 90.328 80.2857 90.488 79.9231 90.808C79.5711 91.1173 79.2937 91.56 79.0911 92.136C78.8884 92.7013 78.7871 93.3627 78.7871 94.12C78.7871 94.8773 78.8884 95.544 79.0911 96.12C79.2937 96.696 79.5711 97.144 79.9231 97.464C80.2857 97.7733 80.7017 97.928 81.1711 97.928C81.6297 97.928 82.0404 97.7733 82.4031 97.464C82.7657 97.144 83.0484 96.696 83.2511 96.12C83.4537 95.5333 83.5551 94.8667 83.5551 94.12C83.5551 93.3733 83.4537 92.712 83.2511 92.136C83.0484 91.56 82.7657 91.1173 82.4031 90.808C82.0404 90.488 81.6297 90.328 81.1711 90.328ZM102.88 88.168V102.168H101.728V88.168H102.88ZM102.064 93.896V94.904H99.3282V93.896H102.064ZM99.6803 88.488V101.432H98.5603V88.488H99.6803ZM92.9282 89.88V97.944H91.7442V89.88H92.9282ZM92.6242 97.464C94.3949 97.464 96.0269 97.3147 97.5202 97.016L97.6642 98.072C96.7789 98.2427 95.9309 98.36 95.1202 98.424C94.3202 98.488 93.4882 98.52 92.6242 98.52H91.7442V97.464H92.6242ZM117.661 99.416V100.408H104.973V99.416H117.661ZM111.885 96.376V99.832H110.701V96.376H111.885ZM116.077 89.208V93.4H107.757V96.248H106.573V92.44H114.893V90.184H106.541V89.208H116.077ZM116.397 95.752V96.728H106.573V95.752H116.397ZM127.023 89.608V90.776C127.023 91.608 126.858 92.392 126.527 93.128C126.207 93.864 125.754 94.504 125.167 95.048C124.58 95.592 123.908 96.0027 123.151 96.28L122.495 95.336C123.188 95.0907 123.802 94.7387 124.335 94.28C124.879 93.8213 125.3 93.288 125.599 92.68C125.898 92.072 126.047 91.4373 126.047 90.776V89.608H127.023ZM127.231 89.608V90.76C127.231 91.3787 127.375 91.976 127.663 92.552C127.951 93.1173 128.351 93.6187 128.863 94.056C129.386 94.4827 129.983 94.8133 130.655 95.048L130.031 96.008C129.284 95.7413 128.623 95.3467 128.047 94.824C127.482 94.3013 127.039 93.6933 126.719 93C126.41 92.296 126.255 91.5493 126.255 90.76V89.608H127.231ZM130.367 89.16V90.152H122.879V89.16H130.367ZM133.391 88.168V96.584H132.191V88.168H133.391ZM135.487 91.896V92.904H133.055V91.896H135.487ZM133.391 97.368V102.168H132.191V98.344H124.335V97.368H133.391ZM141.02 88.968V90.424C141.02 91.3093 140.855 92.136 140.524 92.904C140.204 93.672 139.745 94.3387 139.148 94.904C138.561 95.4693 137.879 95.9013 137.1 96.2L136.476 95.224C137.169 94.968 137.783 94.6 138.316 94.12C138.86 93.64 139.281 93.0853 139.58 92.456C139.879 91.816 140.028 91.1387 140.028 90.424V88.968H141.02ZM141.212 88.968V90.376C141.212 91.0267 141.356 91.6507 141.644 92.248C141.943 92.8453 142.348 93.368 142.86 93.816C143.383 94.264 143.98 94.6053 144.652 94.84L143.996 95.784C143.249 95.496 142.593 95.0907 142.028 94.568C141.463 94.0347 141.02 93.4107 140.7 92.696C140.391 91.9813 140.236 91.208 140.236 90.376V88.968H141.212ZM147.948 88.168V96.456H146.748V88.168H147.948ZM143.372 96.872C144.823 96.872 145.959 97.1067 146.78 97.576C147.601 98.0347 148.012 98.68 148.012 99.512C148.012 100.344 147.601 100.989 146.78 101.448C145.959 101.907 144.823 102.136 143.372 102.136C141.911 102.136 140.764 101.907 139.932 101.448C139.111 100.989 138.7 100.344 138.7 99.512C138.7 98.68 139.116 98.0347 139.948 97.576C140.78 97.1067 141.921 96.872 143.372 96.872ZM143.372 97.832C142.657 97.832 142.039 97.9013 141.516 98.04C141.004 98.168 140.609 98.36 140.332 98.616C140.055 98.8613 139.916 99.16 139.916 99.512C139.916 99.8533 140.055 100.152 140.332 100.408C140.609 100.664 141.004 100.861 141.516 101C142.039 101.128 142.657 101.192 143.372 101.192C144.076 101.192 144.689 101.128 145.212 101C145.735 100.861 146.135 100.664 146.412 100.408C146.689 100.152 146.828 99.8533 146.828 99.512C146.828 99.16 146.689 98.8613 146.412 98.616C146.135 98.36 145.735 98.168 145.212 98.04C144.689 97.9013 144.076 97.832 143.372 97.832ZM147.02 91.176V92.184H143.644V91.176H147.02ZM157.337 90.6V91.576H150.377V90.6H157.337ZM153.865 92.552C154.441 92.552 154.959 92.6907 155.417 92.968C155.876 93.2347 156.233 93.608 156.489 94.088C156.745 94.568 156.873 95.112 156.873 95.72C156.873 96.3387 156.745 96.8933 156.489 97.384C156.233 97.864 155.876 98.2373 155.417 98.504C154.959 98.7707 154.441 98.904 153.865 98.904C153.289 98.904 152.772 98.7707 152.313 98.504C151.865 98.2373 151.513 97.864 151.257 97.384C151.001 96.8933 150.873 96.3387 150.873 95.72C150.873 95.112 151.001 94.568 151.257 94.088C151.513 93.608 151.865 93.2347 152.313 92.968C152.772 92.6907 153.289 92.552 153.865 92.552ZM153.865 93.56C153.492 93.56 153.161 93.656 152.873 93.848C152.585 94.0293 152.356 94.2853 152.185 94.616C152.025 94.936 151.945 95.304 151.945 95.72C151.945 96.136 152.025 96.5093 152.185 96.84C152.356 97.16 152.585 97.416 152.873 97.608C153.161 97.7893 153.492 97.88 153.865 97.88C154.239 97.88 154.569 97.7893 154.857 97.608C155.156 97.416 155.385 97.16 155.545 96.84C155.716 96.5093 155.801 96.136 155.801 95.72C155.801 95.3147 155.716 94.9467 155.545 94.616C155.385 94.2853 155.156 94.0293 154.857 93.848C154.569 93.656 154.239 93.56 153.865 93.56ZM162.217 88.168V102.168H161.081V88.168H162.217ZM161.465 94.088V95.08H158.777V94.088H161.465ZM159.209 88.504V101.464H158.073V88.504H159.209ZM154.457 88.568V91.192H153.273V88.568H154.457ZM171.046 89.544V90.152C171.046 90.952 170.785 91.688 170.262 92.36C169.75 93.032 169.073 93.5973 168.23 94.056C167.398 94.504 166.513 94.808 165.574 94.968L165.11 93.992C165.921 93.8747 166.7 93.6293 167.446 93.256C168.204 92.8827 168.817 92.424 169.286 91.88C169.766 91.336 170.006 90.76 170.006 90.152V89.544H171.046ZM171.334 89.544V90.152C171.334 90.76 171.569 91.336 172.038 91.88C172.518 92.424 173.132 92.8827 173.878 93.256C174.636 93.6293 175.42 93.8747 176.23 93.992L175.766 94.968C174.828 94.808 173.937 94.504 173.094 94.056C172.262 93.5973 171.585 93.032 171.062 92.36C170.55 91.688 170.294 90.952 170.294 90.152V89.544H171.334ZM171.238 96.808V102.168H170.054V96.808H171.238ZM176.998 96.184V97.176H164.342V96.184H176.998ZM175.766 89.064V90.04H165.542V89.064H175.766ZM186.516 93.208V94.216H183.78V93.208H186.516ZM182.164 89.512V92.2C182.164 93.16 182.025 94.0933 181.748 95C181.481 95.9067 181.097 96.7227 180.596 97.448C180.105 98.1627 179.529 98.7227 178.868 99.128L178.116 98.232C178.734 97.8693 179.278 97.368 179.748 96.728C180.217 96.088 180.58 95.3733 180.836 94.584C181.092 93.7947 181.22 93 181.22 92.2V89.512H182.164ZM182.372 89.512V92.168C182.372 92.9147 182.489 93.6613 182.724 94.408C182.969 95.144 183.31 95.8213 183.748 96.44C184.196 97.048 184.718 97.5333 185.316 97.896L184.612 98.824C183.961 98.4293 183.396 97.8853 182.916 97.192C182.436 96.488 182.068 95.6987 181.812 94.824C181.566 93.9493 181.444 93.064 181.444 92.168V89.512H182.372ZM190.148 88.168V102.168H188.996V88.168H190.148ZM187.268 88.488V101.448H186.148V88.488H187.268ZM196.545 95.368V99.592H195.361V95.368H196.545ZM201.745 95.368V99.592H200.545V95.368H201.745ZM204.897 99.352V100.344H192.209V99.352H204.897ZM198.529 89.064C199.51 89.064 200.385 89.2133 201.153 89.512C201.921 89.8 202.518 90.216 202.945 90.76C203.382 91.304 203.601 91.9333 203.601 92.648C203.601 93.3627 203.387 93.992 202.961 94.536C202.534 95.0693 201.937 95.4853 201.169 95.784C200.401 96.072 199.521 96.216 198.529 96.216C197.547 96.216 196.673 96.072 195.905 95.784C195.137 95.4853 194.534 95.0693 194.097 94.536C193.67 93.992 193.457 93.3627 193.457 92.648C193.457 91.9333 193.67 91.304 194.097 90.76C194.534 90.216 195.137 89.8 195.905 89.512C196.673 89.2133 197.547 89.064 198.529 89.064ZM198.529 90.024C197.771 90.024 197.094 90.136 196.497 90.36C195.91 90.5733 195.451 90.8773 195.121 91.272C194.79 91.6667 194.625 92.1253 194.625 92.648C194.625 93.1707 194.79 93.6293 195.121 94.024C195.451 94.4187 195.91 94.728 196.497 94.952C197.094 95.1653 197.771 95.272 198.529 95.272C199.286 95.272 199.958 95.1653 200.545 94.952C201.142 94.728 201.606 94.4187 201.937 94.024C202.278 93.6293 202.449 93.1707 202.449 92.648C202.449 92.1253 202.278 91.6667 201.937 91.272C201.606 90.8773 201.142 90.5733 200.545 90.36C199.958 90.136 199.286 90.024 198.529 90.024Z" fill="#BBBBBF"/>
<rect x="28.5" y="76.5" width="342" height="37" rx="7.5" stroke="#E1E1E6"/>
<path d="M38.14 129.574V140.949H37.204V129.574H38.14ZM37.477 134.228V135.047H35.254V134.228H37.477ZM35.54 129.834V140.351H34.63V129.834H35.54ZM30.054 130.965V137.517H29.092V130.965H30.054ZM29.807 137.127C31.2457 137.127 32.5717 137.006 33.785 136.763L33.902 137.621C33.1827 137.76 32.4937 137.855 31.835 137.907C31.185 137.959 30.509 137.985 29.807 137.985H29.092V137.127H29.807ZM43.352 133.435V135.58H42.39V133.435H43.352ZM47.551 133.435V135.58H46.589V133.435H47.551ZM50.099 135.229V136.009H39.829V135.229H50.099ZM44.964 136.906C46.186 136.906 47.1393 137.084 47.824 137.439C48.5087 137.786 48.851 138.275 48.851 138.908C48.851 139.558 48.5087 140.056 47.824 140.403C47.1393 140.758 46.186 140.936 44.964 140.936C43.742 140.936 42.7887 140.758 42.104 140.403C41.4193 140.056 41.077 139.558 41.077 138.908C41.077 138.275 41.4193 137.786 42.104 137.439C42.7887 137.084 43.742 136.906 44.964 136.906ZM44.964 137.66C44.3573 137.66 43.8373 137.712 43.404 137.816C42.9707 137.911 42.637 138.054 42.403 138.245C42.169 138.427 42.052 138.648 42.052 138.908C42.052 139.307 42.3077 139.619 42.819 139.844C43.3303 140.061 44.0453 140.169 44.964 140.169C45.874 140.169 46.5847 140.061 47.096 139.844C47.6073 139.619 47.863 139.307 47.863 138.908C47.863 138.648 47.746 138.427 47.512 138.245C47.2867 138.054 46.953 137.911 46.511 137.816C46.0777 137.712 45.562 137.66 44.964 137.66ZM44.964 129.795C45.7787 129.795 46.485 129.877 47.083 130.042C47.6897 130.207 48.1533 130.449 48.474 130.77C48.7947 131.082 48.955 131.459 48.955 131.901C48.955 132.334 48.7947 132.711 48.474 133.032C48.1533 133.344 47.6897 133.582 47.083 133.747C46.485 133.912 45.7787 133.994 44.964 133.994C44.1493 133.994 43.4387 133.912 42.832 133.747C42.234 133.582 41.7747 133.344 41.454 133.032C41.1333 132.711 40.973 132.334 40.973 131.901C40.973 131.459 41.1333 131.082 41.454 130.77C41.7747 130.449 42.234 130.207 42.832 130.042C43.4387 129.877 44.1493 129.795 44.964 129.795ZM44.964 130.549C44.3573 130.549 43.8287 130.605 43.378 130.718C42.9273 130.822 42.5807 130.978 42.338 131.186C42.0953 131.385 41.974 131.624 41.974 131.901C41.974 132.317 42.2427 132.646 42.78 132.889C43.3173 133.123 44.0453 133.24 44.964 133.24C45.8827 133.24 46.6107 133.123 47.148 132.889C47.6853 132.646 47.954 132.317 47.954 131.901C47.954 131.624 47.8327 131.385 47.59 131.186C47.3473 130.978 47.0007 130.822 46.55 130.718C46.0993 130.605 45.5707 130.549 44.964 130.549Z" fill="#3E3E40"/>
<rect width="343" height="80" transform="translate(28 150)" fill="white"/>
<path d="M40.88 173.864C41.104 173.64 41.3387 173.416 41.584 173.192C41.8293 172.968 42.08 172.739 42.336 172.504C43.2533 171.661 44 170.952 44.576 170.376C45.152 169.789 45.6373 169.192 46.032 168.584C46.4373 167.965 46.64 167.395 46.64 166.872C46.64 166.36 46.5333 165.923 46.32 165.56C46.1173 165.197 45.84 164.925 45.488 164.744C45.1467 164.552 44.7627 164.456 44.336 164.456C43.824 164.456 43.3547 164.579 42.928 164.824C42.5013 165.069 42.1547 165.501 41.888 166.12L40.832 165.672C41.088 165.085 41.4133 164.616 41.808 164.264C42.2133 163.912 42.6293 163.667 43.056 163.528C43.4933 163.379 43.92 163.304 44.336 163.304C44.9227 163.304 45.4773 163.448 46 163.736C46.5333 164.024 46.9653 164.44 47.296 164.984C47.6267 165.517 47.792 166.147 47.792 166.872C47.792 167.555 47.5627 168.269 47.104 169.016C46.6453 169.752 46.096 170.451 45.456 171.112C44.8267 171.763 44.016 172.541 43.024 173.448C42.5867 173.853 42.1493 174.264 41.712 174.68L40.88 173.864ZM40.88 173.864H47.984V175.016H40.88V173.864ZM53.6577 173.96C54.5963 173.96 55.3217 173.565 55.8337 172.776C56.3457 171.987 56.6017 170.803 56.6017 169.224C56.6017 167.656 56.3457 166.477 55.8337 165.688C55.3217 164.899 54.5963 164.504 53.6577 164.504C52.719 164.504 51.9883 164.899 51.4657 165.688C50.9537 166.467 50.6977 167.645 50.6977 169.224C50.6977 170.803 50.9537 171.987 51.4657 172.776C51.9883 173.565 52.719 173.96 53.6577 173.96ZM53.6577 175.112C52.8257 175.112 52.1003 174.877 51.4817 174.408C50.863 173.939 50.383 173.261 50.0417 172.376C49.711 171.491 49.5457 170.44 49.5457 169.224C49.5457 168.008 49.7163 166.963 50.0577 166.088C50.399 165.203 50.879 164.525 51.4977 164.056C52.1163 163.587 52.8363 163.352 53.6577 163.352C54.479 163.352 55.199 163.587 55.8177 164.056C56.4363 164.525 56.911 165.203 57.2417 166.088C57.583 166.963 57.7537 168.008 57.7537 169.224C57.7537 170.44 57.583 171.491 57.2417 172.376C56.911 173.261 56.4363 173.939 55.8177 174.408C55.199 174.877 54.479 175.112 53.6577 175.112ZM63.4346 173.96C64.3733 173.96 65.0986 173.565 65.6106 172.776C66.1226 171.987 66.3786 170.803 66.3786 169.224C66.3786 167.656 66.1226 166.477 65.6106 165.688C65.0986 164.899 64.3733 164.504 63.4346 164.504C62.4959 164.504 61.7653 164.899 61.2426 165.688C60.7306 166.467 60.4746 167.645 60.4746 169.224C60.4746 170.803 60.7306 171.987 61.2426 172.776C61.7653 173.565 62.4959 173.96 63.4346 173.96ZM63.4346 175.112C62.6026 175.112 61.8773 174.877 61.2586 174.408C60.6399 173.939 60.1599 173.261 59.8186 172.376C59.4879 171.491 59.3226 170.44 59.3226 169.224C59.3226 168.008 59.4933 166.963 59.8346 166.088C60.1759 165.203 60.6559 164.525 61.2746 164.056C61.8933 163.587 62.6133 163.352 63.4346 163.352C64.2559 163.352 64.9759 163.587 65.5946 164.056C66.2133 164.525 66.6879 165.203 67.0186 166.088C67.3599 166.963 67.5306 168.008 67.5306 169.224C67.5306 170.44 67.3599 171.491 67.0186 172.376C66.6879 173.261 66.2133 173.939 65.5946 174.408C64.9759 174.877 64.2559 175.112 63.4346 175.112ZM73.4035 164.152V166.504C73.4035 167.443 73.2222 168.381 72.8595 169.32C72.4969 170.248 72.0115 171.08 71.4035 171.816C70.7955 172.552 70.1395 173.101 69.4355 173.464L68.7315 172.52C69.3822 172.2 69.9902 171.715 70.5555 171.064C71.1315 170.413 71.5902 169.683 71.9315 168.872C72.2729 168.061 72.4435 167.272 72.4435 166.504V164.152H73.4035ZM73.6115 164.152V166.504C73.6115 167.229 73.7715 167.971 74.0915 168.728C74.4222 169.485 74.8649 170.173 75.4195 170.792C75.9742 171.4 76.5822 171.859 77.2435 172.168L76.5555 173.128C75.8302 172.765 75.1689 172.237 74.5715 171.544C73.9849 170.84 73.5155 170.051 73.1635 169.176C72.8222 168.291 72.6515 167.4 72.6515 166.504V164.152H73.6115ZM76.7475 163.608V164.616H69.2115V163.608H76.7475ZM79.6755 162.168V176.168H78.4755V162.168H79.6755ZM81.9955 167.864V168.872H79.4035V167.864H81.9955ZM97.933 162.152V176.184H96.733V162.152H97.933ZM90.573 163.256C91.2557 163.256 91.8637 163.459 92.397 163.864C92.941 164.259 93.3623 164.824 93.661 165.56C93.9597 166.296 94.109 167.149 94.109 168.12C94.109 169.091 93.9597 169.949 93.661 170.696C93.3623 171.432 92.941 172.003 92.397 172.408C91.8637 172.803 91.2557 173 90.573 173C89.8797 173 89.261 172.803 88.717 172.408C88.1837 172.003 87.7677 171.432 87.469 170.696C87.1703 169.96 87.021 169.101 87.021 168.12C87.021 167.149 87.1703 166.296 87.469 165.56C87.7677 164.824 88.1837 164.259 88.717 163.864C89.261 163.459 89.8797 163.256 90.573 163.256ZM90.573 164.328C90.1037 164.328 89.6877 164.488 89.325 164.808C88.973 165.117 88.6957 165.56 88.493 166.136C88.2903 166.701 88.189 167.363 88.189 168.12C88.189 168.877 88.2903 169.544 88.493 170.12C88.6957 170.696 88.973 171.144 89.325 171.464C89.6877 171.773 90.1037 171.928 90.573 171.928C91.0317 171.928 91.4423 171.773 91.805 171.464C92.1677 171.144 92.4503 170.696 92.653 170.12C92.8557 169.533 92.957 168.867 92.957 168.12C92.957 167.373 92.8557 166.712 92.653 166.136C92.4503 165.56 92.1677 165.117 91.805 164.808C91.4423 164.488 91.0317 164.328 90.573 164.328ZM112.282 162.168V176.168H111.13V162.168H112.282ZM111.466 167.896V168.904H108.73V167.896H111.466ZM109.082 162.488V175.432H107.962V162.488H109.082ZM102.33 163.88V171.944H101.146V163.88H102.33ZM102.026 171.464C103.797 171.464 105.429 171.315 106.922 171.016L107.066 172.072C106.181 172.243 105.333 172.36 104.522 172.424C103.722 172.488 102.89 172.52 102.026 172.52H101.146V171.464H102.026ZM127.063 173.416V174.408H114.375V173.416H127.063ZM121.287 170.376V173.832H120.103V170.376H121.287ZM125.479 163.208V167.4H117.159V170.248H115.975V166.44H124.295V164.184H115.943V163.208H125.479ZM125.799 169.752V170.728H115.975V169.752H125.799ZM136.425 163.608V164.776C136.425 165.608 136.259 166.392 135.929 167.128C135.609 167.864 135.155 168.504 134.569 169.048C133.982 169.592 133.31 170.003 132.553 170.28L131.897 169.336C132.59 169.091 133.203 168.739 133.737 168.28C134.281 167.821 134.702 167.288 135.001 166.68C135.299 166.072 135.449 165.437 135.449 164.776V163.608H136.425ZM136.633 163.608V164.76C136.633 165.379 136.777 165.976 137.065 166.552C137.353 167.117 137.753 167.619 138.265 168.056C138.787 168.483 139.385 168.813 140.057 169.048L139.433 170.008C138.686 169.741 138.025 169.347 137.449 168.824C136.883 168.301 136.441 167.693 136.121 167C135.811 166.296 135.657 165.549 135.657 164.76V163.608H136.633ZM139.769 163.16V164.152H132.281V163.16H139.769ZM142.793 162.168V170.584H141.593V162.168H142.793ZM144.889 165.896V166.904H142.457V165.896H144.889ZM142.793 171.368V176.168H141.593V172.344H133.737V171.368H142.793ZM150.422 162.968V164.424C150.422 165.309 150.257 166.136 149.926 166.904C149.606 167.672 149.147 168.339 148.55 168.904C147.963 169.469 147.281 169.901 146.502 170.2L145.878 169.224C146.571 168.968 147.185 168.6 147.718 168.12C148.262 167.64 148.683 167.085 148.982 166.456C149.281 165.816 149.43 165.139 149.43 164.424V162.968H150.422ZM150.614 162.968V164.376C150.614 165.027 150.758 165.651 151.046 166.248C151.345 166.845 151.75 167.368 152.262 167.816C152.785 168.264 153.382 168.605 154.054 168.84L153.398 169.784C152.651 169.496 151.995 169.091 151.43 168.568C150.865 168.035 150.422 167.411 150.102 166.696C149.793 165.981 149.638 165.208 149.638 164.376V162.968H150.614ZM157.35 162.168V170.456H156.15V162.168H157.35ZM152.774 170.872C154.225 170.872 155.361 171.107 156.182 171.576C157.003 172.035 157.414 172.68 157.414 173.512C157.414 174.344 157.003 174.989 156.182 175.448C155.361 175.907 154.225 176.136 152.774 176.136C151.313 176.136 150.166 175.907 149.334 175.448C148.513 174.989 148.102 174.344 148.102 173.512C148.102 172.68 148.518 172.035 149.35 171.576C150.182 171.107 151.323 170.872 152.774 170.872ZM152.774 171.832C152.059 171.832 151.441 171.901 150.918 172.04C150.406 172.168 150.011 172.36 149.734 172.616C149.457 172.861 149.318 173.16 149.318 173.512C149.318 173.853 149.457 174.152 149.734 174.408C150.011 174.664 150.406 174.861 150.918 175C151.441 175.128 152.059 175.192 152.774 175.192C153.478 175.192 154.091 175.128 154.614 175C155.137 174.861 155.537 174.664 155.814 174.408C156.091 174.152 156.23 173.853 156.23 173.512C156.23 173.16 156.091 172.861 155.814 172.616C155.537 172.36 155.137 172.168 154.614 172.04C154.091 171.901 153.478 171.832 152.774 171.832ZM156.422 165.176V166.184H153.046V165.176H156.422ZM166.739 164.6V165.576H159.779V164.6H166.739ZM163.267 166.552C163.843 166.552 164.361 166.691 164.819 166.968C165.278 167.235 165.635 167.608 165.891 168.088C166.147 168.568 166.275 169.112 166.275 169.72C166.275 170.339 166.147 170.893 165.891 171.384C165.635 171.864 165.278 172.237 164.819 172.504C164.361 172.771 163.843 172.904 163.267 172.904C162.691 172.904 162.174 172.771 161.715 172.504C161.267 172.237 160.915 171.864 160.659 171.384C160.403 170.893 160.275 170.339 160.275 169.72C160.275 169.112 160.403 168.568 160.659 168.088C160.915 167.608 161.267 167.235 161.715 166.968C162.174 166.691 162.691 166.552 163.267 166.552ZM163.267 167.56C162.894 167.56 162.563 167.656 162.275 167.848C161.987 168.029 161.758 168.285 161.587 168.616C161.427 168.936 161.347 169.304 161.347 169.72C161.347 170.136 161.427 170.509 161.587 170.84C161.758 171.16 161.987 171.416 162.275 171.608C162.563 171.789 162.894 171.88 163.267 171.88C163.641 171.88 163.971 171.789 164.259 171.608C164.558 171.416 164.787 171.16 164.947 170.84C165.118 170.509 165.203 170.136 165.203 169.72C165.203 169.315 165.118 168.947 164.947 168.616C164.787 168.285 164.558 168.029 164.259 167.848C163.971 167.656 163.641 167.56 163.267 167.56ZM171.619 162.168V176.168H170.483V162.168H171.619ZM170.867 168.088V169.08H168.179V168.088H170.867ZM168.611 162.504V175.464H167.475V162.504H168.611ZM163.859 162.568V165.192H162.675V162.568H163.859ZM180.448 163.544V164.152C180.448 164.952 180.187 165.688 179.664 166.36C179.152 167.032 178.475 167.597 177.632 168.056C176.8 168.504 175.915 168.808 174.976 168.968L174.512 167.992C175.323 167.875 176.102 167.629 176.848 167.256C177.606 166.883 178.219 166.424 178.688 165.88C179.168 165.336 179.408 164.76 179.408 164.152V163.544H180.448ZM180.736 163.544V164.152C180.736 164.76 180.971 165.336 181.44 165.88C181.92 166.424 182.534 166.883 183.28 167.256C184.038 167.629 184.822 167.875 185.632 167.992L185.168 168.968C184.23 168.808 183.339 168.504 182.496 168.056C181.664 167.597 180.987 167.032 180.464 166.36C179.952 165.688 179.696 164.952 179.696 164.152V163.544H180.736ZM180.64 170.808V176.168H179.456V170.808H180.64ZM186.4 170.184V171.176H173.744V170.184H186.4ZM185.168 163.064V164.04H174.944V163.064H185.168ZM195.918 167.208V168.216H193.182V167.208H195.918ZM191.566 163.512V166.2C191.566 167.16 191.427 168.093 191.15 169C190.883 169.907 190.499 170.723 189.998 171.448C189.507 172.163 188.931 172.723 188.27 173.128L187.518 172.232C188.136 171.869 188.68 171.368 189.15 170.728C189.619 170.088 189.982 169.373 190.238 168.584C190.494 167.795 190.622 167 190.622 166.2V163.512H191.566ZM191.774 163.512V166.168C191.774 166.915 191.891 167.661 192.126 168.408C192.371 169.144 192.712 169.821 193.15 170.44C193.598 171.048 194.12 171.533 194.718 171.896L194.014 172.824C193.363 172.429 192.798 171.885 192.318 171.192C191.838 170.488 191.47 169.699 191.214 168.824C190.968 167.949 190.846 167.064 190.846 166.168V163.512H191.774ZM199.55 162.168V176.168H198.398V162.168H199.55ZM196.67 162.488V175.448H195.55V162.488H196.67ZM205.947 169.368V173.592H204.763V169.368H205.947ZM211.147 169.368V173.592H209.947V169.368H211.147ZM214.299 173.352V174.344H201.611V173.352H214.299ZM207.931 163.064C208.912 163.064 209.787 163.213 210.555 163.512C211.323 163.8 211.92 164.216 212.347 164.76C212.784 165.304 213.003 165.933 213.003 166.648C213.003 167.363 212.789 167.992 212.363 168.536C211.936 169.069 211.339 169.485 210.571 169.784C209.803 170.072 208.923 170.216 207.931 170.216C206.949 170.216 206.075 170.072 205.307 169.784C204.539 169.485 203.936 169.069 203.499 168.536C203.072 167.992 202.859 167.363 202.859 166.648C202.859 165.933 203.072 165.304 203.499 164.76C203.936 164.216 204.539 163.8 205.307 163.512C206.075 163.213 206.949 163.064 207.931 163.064ZM207.931 164.024C207.173 164.024 206.496 164.136 205.899 164.36C205.312 164.573 204.853 164.877 204.523 165.272C204.192 165.667 204.027 166.125 204.027 166.648C204.027 167.171 204.192 167.629 204.523 168.024C204.853 168.419 205.312 168.728 205.899 168.952C206.496 169.165 207.173 169.272 207.931 169.272C208.688 169.272 209.36 169.165 209.947 168.952C210.544 168.728 211.008 168.419 211.339 168.024C211.68 167.629 211.851 167.171 211.851 166.648C211.851 166.125 211.68 165.667 211.339 165.272C211.008 164.877 210.544 164.573 209.947 164.36C209.36 164.136 208.688 164.024 207.931 164.024Z" fill="#BBBBBF"/>
<rect x="28.5" y="150.5" width="342" height="79" rx="7.5" stroke="#E1E1E6"/>
<path d="M33.61 259.896V260.967C33.61 261.93 33.4457 262.831 33.117 263.67C32.7883 264.497 32.301 265.223 31.655 265.846C31.0203 266.458 30.2553 266.917 29.36 267.223L28.442 265.778C29.224 265.517 29.887 265.143 30.431 264.656C30.9863 264.157 31.4057 263.591 31.689 262.956C31.9723 262.321 32.114 261.658 32.114 260.967V259.896H33.61ZM33.95 259.896V260.967C33.95 261.59 34.0803 262.191 34.341 262.769C34.613 263.336 35.0153 263.84 35.548 264.282C36.0807 264.724 36.7267 265.064 37.486 265.302L36.602 266.73C35.718 266.447 34.9643 266.022 34.341 265.455C33.729 264.888 33.2643 264.22 32.947 263.449C32.6297 262.678 32.471 261.851 32.471 260.967V259.896H33.95ZM37.078 259.301V260.78H28.935V259.301H37.078ZM40.393 258.247V267.274H38.574V258.247H40.393ZM42.501 261.885V263.381H39.9V261.885H42.501ZM35.531 267.597C36.5623 267.597 37.4577 267.71 38.217 267.937C38.9763 268.164 39.5543 268.498 39.951 268.94C40.359 269.371 40.563 269.881 40.563 270.47C40.563 271.377 40.1097 272.079 39.203 272.578C38.3077 273.088 37.0837 273.343 35.531 273.343C34.4997 273.343 33.5987 273.23 32.828 273.003C32.0687 272.776 31.485 272.448 31.077 272.017C30.669 271.586 30.465 271.071 30.465 270.47C30.465 269.881 30.669 269.371 31.077 268.94C31.485 268.498 32.0687 268.164 32.828 267.937C33.5987 267.71 34.4997 267.597 35.531 267.597ZM35.531 269.042C34.8397 269.042 34.2503 269.099 33.763 269.212C33.287 269.314 32.9187 269.473 32.658 269.688C32.3973 269.903 32.267 270.164 32.267 270.47C32.267 270.946 32.5503 271.309 33.117 271.558C33.6837 271.807 34.4827 271.932 35.514 271.932C36.5567 271.932 37.3557 271.807 37.911 271.558C38.4777 271.309 38.761 270.946 38.761 270.47C38.761 270.164 38.6363 269.903 38.387 269.688C38.1377 269.473 37.7693 269.314 37.282 269.212C36.806 269.099 36.2223 269.042 35.531 269.042ZM57.0517 269.994V271.49H43.3667V269.994H57.0517ZM51.0507 266.509V270.419H49.2487V266.509H51.0507ZM50.7787 259.148V260.27C50.7787 261.335 50.5067 262.327 49.9627 263.245C49.43 264.152 48.6877 264.922 47.7357 265.557C46.795 266.192 45.7297 266.628 44.5397 266.866L43.7917 265.336C44.8004 265.166 45.7184 264.826 46.5457 264.316C47.373 263.795 48.019 263.183 48.4837 262.48C48.9484 261.766 49.1807 261.029 49.1807 260.27V259.148H50.7787ZM51.1187 259.148V260.27C51.1187 261.029 51.351 261.766 51.8157 262.48C52.2917 263.194 52.9377 263.806 53.7537 264.316C54.581 264.826 55.5047 265.166 56.5247 265.336L55.7427 266.866C54.5527 266.628 53.4874 266.197 52.5467 265.574C51.606 264.939 50.8637 264.163 50.3197 263.245C49.787 262.327 49.5207 261.335 49.5207 260.27V259.148H51.1187Z" fill="#3E3E40"/>
<rect width="343" height="38" transform="translate(28 286)" fill="white"/>
<path d="M53.8067 309.86L51.54 307.6C52.2713 306.668 52.6681 305.518 52.6667 304.333C52.6667 303.279 52.3539 302.247 51.7678 301.37C51.1818 300.493 50.3489 299.81 49.3743 299.406C48.3998 299.002 47.3274 298.897 46.2929 299.102C45.2583 299.308 44.308 299.816 43.5621 300.562C42.8162 301.308 42.3083 302.258 42.1025 303.293C41.8967 304.327 42.0023 305.4 42.406 306.374C42.8096 307.349 43.4932 308.182 44.3703 308.768C45.2474 309.354 46.2785 309.667 47.3333 309.667C48.5178 309.668 49.6683 309.271 50.6 308.54L52.86 310.807C52.922 310.869 52.9957 310.919 53.077 310.953C53.1582 310.986 53.2453 311.004 53.3333 311.004C53.4213 311.004 53.5085 310.986 53.5897 310.953C53.671 310.919 53.7447 310.869 53.8067 310.807C53.8692 310.745 53.9188 310.671 53.9526 310.59C53.9864 310.508 54.0039 310.421 54.0039 310.333C54.0039 310.245 53.9864 310.158 53.9526 310.077C53.9188 309.996 53.8692 309.922 53.8067 309.86V309.86ZM43.3333 304.333C43.3333 303.542 43.5679 302.769 44.0075 302.111C44.447 301.453 45.0717 300.941 45.8026 300.638C46.5335 300.335 47.3378 300.256 48.1137 300.41C48.8896 300.565 49.6024 300.945 50.1618 301.505C50.7212 302.064 51.1021 302.777 51.2565 303.553C51.4108 304.329 51.3316 305.133 51.0289 305.864C50.7261 306.595 50.2134 307.22 49.5556 307.659C48.8978 308.099 48.1245 308.333 47.3333 308.333C46.2725 308.333 45.2551 307.912 44.5049 307.162C43.7548 306.412 43.3333 305.394 43.3333 304.333Z" fill="#BBBBBF"/>
<path d="M69.344 300.152V302.504C69.344 303.453 69.1627 304.397 68.8 305.336C68.4373 306.275 67.9467 307.107 67.328 307.832C66.72 308.557 66.0533 309.101 65.328 309.464L64.64 308.52C65.2907 308.2 65.904 307.72 66.48 307.08C67.056 306.429 67.5147 305.699 67.856 304.888C68.1973 304.077 68.368 303.283 68.368 302.504V300.152H69.344ZM69.568 300.152V302.504C69.568 303.272 69.7387 304.04 70.08 304.808C70.432 305.565 70.896 306.243 71.472 306.84C72.048 307.427 72.672 307.869 73.344 308.168L72.656 309.128C71.92 308.776 71.2373 308.264 70.608 307.592C69.9893 306.909 69.4987 306.125 69.136 305.24C68.7733 304.355 68.592 303.443 68.592 302.504V300.152H69.568ZM72.896 299.608V300.616H65.072V299.608H72.896ZM76.048 298.168V312.168H74.848V298.168H76.048ZM89.2452 302.136V303.128H85.1652V302.136H89.2452ZM90.0612 298.184V308.536H88.8612V298.184H90.0612ZM90.3972 310.856V311.848H81.1012V310.856H90.3972ZM82.3012 307.528V311.352H81.1012V307.528H82.3012ZM80.4612 299.096V301.608H84.3812V299.096H85.5652V306.136H79.2772V299.096H80.4612ZM80.4612 305.144H84.3812V302.552H80.4612V305.144ZM93.4184 312.744H92.5704L93.0504 309.784H94.2984L93.4184 312.744ZM111.682 304.728V305.72H102.098V304.728H111.682ZM113.154 309.368V310.376H100.466V309.368H113.154ZM107.378 305.144V309.784H106.194V305.144H107.378ZM111.522 299.288V300.28H103.298V305.176H102.098V299.288H111.522ZM127.088 309.416V310.408H114.4V309.416H127.088ZM121.312 306.376V309.832H120.128V306.376H121.312ZM125.504 299.208V303.4H117.184V306.248H116V302.44H124.32V300.184H115.968V299.208H125.504ZM125.824 305.752V306.728H116V305.752H125.824ZM139.085 300.456V301.448H134.989V300.456H139.085ZM139.117 303.24V304.216H134.989V303.24H139.117ZM139.821 298.168V306.456H138.621V298.168H139.821ZM135.341 299.224V305.432H128.989V299.224H135.341ZM130.157 300.2V304.472H134.173V300.2H130.157ZM135.229 306.872C136.679 306.872 137.815 307.107 138.637 307.576C139.469 308.035 139.885 308.68 139.885 309.512C139.885 310.344 139.469 310.989 138.637 311.448C137.815 311.907 136.679 312.136 135.229 312.136C133.778 312.136 132.637 311.907 131.805 311.448C130.983 310.989 130.573 310.344 130.573 309.512C130.573 308.68 130.983 308.035 131.805 307.576C132.637 307.107 133.778 306.872 135.229 306.872ZM135.229 307.832C134.514 307.832 133.895 307.901 133.373 308.04C132.861 308.168 132.466 308.36 132.189 308.616C131.911 308.861 131.773 309.16 131.773 309.512C131.773 309.853 131.911 310.152 132.189 310.408C132.466 310.664 132.866 310.861 133.389 311C133.911 311.128 134.525 311.192 135.229 311.192C135.933 311.192 136.546 311.128 137.069 311C137.591 310.861 137.991 310.664 138.269 310.408C138.546 310.152 138.685 309.853 138.685 309.512C138.685 309.16 138.546 308.861 138.269 308.616C137.991 308.36 137.591 308.168 137.069 308.04C136.557 307.901 135.943 307.832 135.229 307.832ZM143.178 312.744H142.33L142.81 309.784H144.058L143.178 312.744ZM161.714 298.168V308.52H160.514V298.168H161.714ZM160.754 302.504V303.512H157.426V302.504H160.754ZM157.458 299.256C157.458 300.429 157.191 301.517 156.658 302.52C156.125 303.512 155.367 304.381 154.386 305.128C153.415 305.864 152.269 306.456 150.946 306.904L150.434 305.928C152.194 305.341 153.591 304.504 154.626 303.416C155.671 302.328 156.194 301.101 156.194 299.736V299.256H157.458ZM156.978 299.256V300.248H151.138V299.256H156.978ZM162.066 310.856V311.848H152.898V310.856H162.066ZM154.114 307.464V311.336H152.898V307.464H154.114ZM171.071 304.776V306.952H169.871V304.776H171.071ZM176.799 304.12V305.096H164.159V304.12H176.799ZM175.151 298.648V302.888H165.823V298.648H175.151ZM166.991 299.608V301.928H173.983V299.608H166.991ZM175.167 306.504V309.592H166.911V311.352H165.743V308.712H173.999V307.432H165.695V306.504H175.167ZM175.599 311.064V312.008H165.743V311.064H175.599ZM188.844 300.456V301.448H184.748V300.456H188.844ZM188.876 303.24V304.216H184.748V303.24H188.876ZM189.58 298.168V306.456H188.38V298.168H189.58ZM185.1 299.224V305.432H178.748V299.224H185.1ZM179.916 300.2V304.472H183.932V300.2H179.916ZM184.988 306.872C186.439 306.872 187.575 307.107 188.396 307.576C189.228 308.035 189.644 308.68 189.644 309.512C189.644 310.344 189.228 310.989 188.396 311.448C187.575 311.907 186.439 312.136 184.988 312.136C183.538 312.136 182.396 311.907 181.564 311.448C180.743 310.989 180.332 310.344 180.332 309.512C180.332 308.68 180.743 308.035 181.564 307.576C182.396 307.107 183.538 306.872 184.988 306.872ZM184.988 307.832C184.274 307.832 183.655 307.901 183.132 308.04C182.62 308.168 182.226 308.36 181.948 308.616C181.671 308.861 181.532 309.16 181.532 309.512C181.532 309.853 181.671 310.152 181.948 310.408C182.226 310.664 182.626 310.861 183.148 311C183.671 311.128 184.284 311.192 184.988 311.192C185.692 311.192 186.306 311.128 186.828 311C187.351 310.861 187.751 310.664 188.028 310.408C188.306 310.152 188.444 309.853 188.444 309.512C188.444 309.16 188.306 308.861 188.028 308.616C187.751 308.36 187.351 308.168 186.828 308.04C186.316 307.901 185.703 307.832 184.988 307.832ZM198.346 299.064C199.306 299.064 200.17 299.224 200.938 299.544C201.716 299.864 202.324 300.317 202.762 300.904C203.199 301.48 203.418 302.147 203.418 302.904C203.418 303.661 203.199 304.333 202.762 304.92C202.324 305.496 201.722 305.944 200.954 306.264C200.186 306.584 199.316 306.744 198.346 306.744C197.386 306.744 196.516 306.584 195.738 306.264C194.97 305.944 194.367 305.496 193.93 304.92C193.492 304.333 193.274 303.661 193.274 302.904C193.274 302.147 193.492 301.48 193.93 300.904C194.367 300.317 194.97 299.864 195.738 299.544C196.516 299.224 197.386 299.064 198.346 299.064ZM198.362 300.04C197.615 300.04 196.943 300.163 196.346 300.408C195.748 300.643 195.279 300.979 194.938 301.416C194.596 301.853 194.426 302.349 194.426 302.904C194.426 303.469 194.596 303.971 194.938 304.408C195.279 304.835 195.743 305.171 196.33 305.416C196.927 305.651 197.599 305.768 198.346 305.768C199.092 305.768 199.764 305.651 200.362 305.416C200.959 305.171 201.423 304.835 201.754 304.408C202.095 303.971 202.266 303.469 202.266 302.904C202.266 302.349 202.095 301.853 201.754 301.416C201.423 300.979 200.959 300.643 200.362 300.408C199.764 300.163 199.098 300.04 198.362 300.04ZM204.714 309.272V310.28H192.026V309.272H204.714ZM218.647 309.416V310.408H205.959V309.416H218.647ZM212.871 306.376V309.832H211.687V306.376H212.871ZM217.063 299.208V303.4H208.743V306.248H207.559V302.44H215.879V300.184H207.527V299.208H217.063ZM217.383 305.752V306.728H207.559V305.752H217.383ZM230.68 299.08C230.68 300.808 230.104 302.291 228.952 303.528C227.811 304.755 226.216 305.661 224.168 306.248L223.672 305.304C225.475 304.792 226.883 304.04 227.896 303.048C228.91 302.045 229.416 300.888 229.416 299.576V299.08H230.68ZM230.232 299.08V300.056H224.392V299.08H230.232ZM235.016 298.168V306.168H233.816V298.168H235.016ZM234.04 301.8V302.808H230.696V301.8H234.04ZM235.016 306.76V311.96H226.008V306.76H235.016ZM227.176 307.736V310.984H233.832V307.736H227.176ZM241.381 299.016V300.92C241.381 301.613 241.248 302.307 240.981 303C240.725 303.683 240.352 304.301 239.861 304.856C239.371 305.4 238.795 305.821 238.133 306.12L237.477 305.176C238.064 304.909 238.581 304.547 239.029 304.088C239.477 303.619 239.819 303.107 240.053 302.552C240.299 301.997 240.421 301.453 240.421 300.92V299.016H241.381ZM241.573 299.016V300.92C241.573 301.453 241.685 301.976 241.909 302.488C242.144 303 242.475 303.464 242.901 303.88C243.339 304.285 243.851 304.605 244.437 304.84L243.797 305.768C242.816 305.363 242.043 304.717 241.477 303.832C240.912 302.947 240.629 301.976 240.629 300.92V299.016H241.573ZM249.237 298.184V306.632H248.085V298.184H249.237ZM248.453 301.848V302.84H245.765V301.848H248.453ZM246.213 298.424V306.552H245.077V298.424H246.213ZM249.237 307.432V312.168H248.037V308.408H239.861V307.432H249.237Z" fill="#BBBBBF"/>
<rect x="28.5" y="286.5" width="342" height="37" rx="7.5" stroke="#E1E1E6"/>
</g>
</g>
<defs>
<clipPath id="clip0_52_21716">
<rect x="11" width="376" height="348" rx="30" fill="white"/>
</clipPath>
<clipPath id="clip1_52_21716">
<rect width="375" height="622" fill="white" transform="translate(11 -4)"/>
</clipPath>
</defs>
</svg>
