<svg width="399" height="75" viewBox="0 0 399 75" fill="none" xmlns="http://www.w3.org/2000/svg">
<rect x="0.5" y="0.5" width="398" height="74" rx="7.5" fill="#FDF56F" stroke="black"/>
<path d="M52.136 40.04V42.104H32.816V40.04H52.136ZM43.688 41.048V48.92H41.144V41.048H43.688ZM37.688 28.448V31.064H47.216V28.448H49.76V37.784H35.12V28.448H37.688ZM37.688 35.72H47.216V33.104H37.688V35.72ZM60.1766 28.856V31.328C60.1766 33.472 59.6646 35.36 58.6406 36.992C57.6166 38.608 56.1526 39.76 54.2486 40.448L52.8566 38.432C53.9926 38.048 54.9446 37.496 55.7126 36.776C56.4966 36.04 57.0806 35.208 57.4646 34.28C57.8646 33.352 58.0646 32.368 58.0646 31.328V28.856H60.1766ZM60.6566 28.856V31.352C60.6566 32.312 60.8486 33.224 61.2326 34.088C61.6166 34.952 62.1846 35.728 62.9366 36.416C63.7046 37.088 64.6326 37.6 65.7206 37.952L64.3766 39.968C63.1446 39.552 62.0886 38.92 61.2086 38.072C60.3446 37.208 59.6886 36.208 59.2406 35.072C58.7926 33.92 58.5686 32.68 58.5686 31.352V28.856H60.6566ZM69.7526 27.584V43.232H67.1846V27.584H69.7526ZM72.7286 33.92V36.056H69.0326V33.92H72.7286ZM70.5926 46.424V48.512H56.2406V46.424H70.5926ZM58.8326 41.744V47.504H56.2406V41.744H58.8326ZM83.6251 28.832V30.896H74.3851V28.832H83.6251ZM79.8091 33.512V38.72H77.2411V33.512H79.8091ZM85.1371 28.832V30.104C85.1371 31.112 85.1051 32.048 85.0411 32.912C84.9931 33.776 84.8571 34.736 84.6331 35.792L82.1131 35.6C82.3371 34.544 82.4731 33.608 82.5211 32.792C82.5851 31.976 82.6171 31.08 82.6171 30.104V28.832H85.1371ZM90.1771 27.584V40.712H87.5851V27.584H90.1771ZM92.9611 33.08V35.216H89.1211V33.08H92.9611ZM73.0891 37.52C75.6331 37.52 77.9931 37.48 80.1691 37.4C82.3611 37.32 84.4091 37.16 86.3131 36.92L86.4811 38.768C84.5131 39.104 82.4251 39.328 80.2171 39.44C78.0091 39.552 75.7291 39.608 73.3771 39.608L73.0891 37.52ZM83.1211 40.976C84.5931 40.976 85.8731 41.136 86.9611 41.456C88.0651 41.76 88.9051 42.208 89.4811 42.8C90.0731 43.392 90.3691 44.088 90.3691 44.888C90.3691 45.72 90.0731 46.432 89.4811 47.024C88.9051 47.632 88.0731 48.096 86.9851 48.416C85.8971 48.736 84.6091 48.896 83.1211 48.896C81.6331 48.896 80.3451 48.736 79.2571 48.416C78.1851 48.096 77.3531 47.632 76.7611 47.024C76.1691 46.432 75.8731 45.72 75.8731 44.888C75.8731 44.088 76.1691 43.392 76.7611 42.8C77.3531 42.208 78.1851 41.76 79.2571 41.456C80.3451 41.136 81.6331 40.976 83.1211 40.976ZM83.1211 42.968C81.6491 42.968 80.5051 43.136 79.6891 43.472C78.8891 43.808 78.4891 44.28 78.4891 44.888C78.4891 45.528 78.8891 46.024 79.6891 46.376C80.4891 46.712 81.6331 46.88 83.1211 46.88C84.5931 46.88 85.7291 46.712 86.5291 46.376C87.3451 46.024 87.7531 45.528 87.7531 44.888C87.7531 44.28 87.3451 43.808 86.5291 43.472C85.7291 43.136 84.5931 42.968 83.1211 42.968ZM109.522 30.56V32.648H103.138V30.56H109.522ZM109.522 35.264V37.352H103.138V35.264H109.522ZM111.298 41.264V48.92H108.706V43.28H96.8737V41.264H111.298ZM111.298 27.584V40.184H108.706V27.584H111.298ZM99.4417 28.736C100.482 28.736 101.426 28.96 102.274 29.408C103.122 29.856 103.786 30.48 104.266 31.28C104.762 32.064 105.01 32.952 105.01 33.944C105.01 34.936 104.762 35.832 104.266 36.632C103.786 37.432 103.122 38.056 102.274 38.504C101.426 38.936 100.474 39.152 99.4177 39.152C98.3777 39.152 97.4337 38.936 96.5857 38.504C95.7377 38.056 95.0657 37.44 94.5697 36.656C94.0897 35.856 93.8497 34.952 93.8497 33.944C93.8497 32.952 94.0897 32.064 94.5697 31.28C95.0657 30.48 95.7377 29.856 96.5857 29.408C97.4337 28.96 98.3857 28.736 99.4417 28.736ZM99.4417 30.944C98.8497 30.944 98.3137 31.072 97.8337 31.328C97.3537 31.568 96.9777 31.92 96.7057 32.384C96.4337 32.832 96.2977 33.352 96.2977 33.944C96.2977 34.552 96.4337 35.088 96.7057 35.552C96.9777 36 97.3457 36.352 97.8097 36.608C98.2897 36.848 98.8257 36.968 99.4177 36.968C100.026 36.968 100.562 36.848 101.026 36.608C101.49 36.352 101.858 36 102.13 35.552C102.402 35.088 102.538 34.552 102.538 33.944C102.538 33.352 102.402 32.832 102.13 32.384C101.858 31.92 101.49 31.568 101.026 31.328C100.562 31.072 100.034 30.944 99.4417 30.944ZM121.33 29.312V32.72C121.33 34.496 121.082 36.168 120.586 37.736C120.106 39.304 119.402 40.696 118.474 41.912C117.546 43.112 116.442 44.016 115.162 44.624L113.626 42.488C114.746 41.976 115.73 41.216 116.578 40.208C117.426 39.2 118.074 38.048 118.522 36.752C118.97 35.456 119.194 34.112 119.194 32.72V29.312H121.33ZM121.786 29.312V32.72C121.786 34.048 122.002 35.336 122.434 36.584C122.882 37.816 123.522 38.92 124.354 39.896C125.186 40.872 126.154 41.6 127.258 42.08L125.746 44.168C124.498 43.576 123.41 42.704 122.482 41.552C121.57 40.4 120.874 39.072 120.394 37.568C119.93 36.048 119.698 34.432 119.698 32.72V29.312H121.786ZM131.41 27.56V48.968H128.818V27.56H131.41ZM149.23 30.992V33.056H138.862V30.992H149.23ZM144.094 34.208C144.974 34.208 145.766 34.424 146.47 34.856C147.174 35.288 147.726 35.88 148.126 36.632C148.526 37.384 148.726 38.24 148.726 39.2C148.726 40.16 148.526 41.024 148.126 41.792C147.726 42.544 147.174 43.136 146.47 43.568C145.766 43.984 144.974 44.192 144.094 44.192C143.198 44.192 142.398 43.984 141.694 43.568C140.99 43.136 140.438 42.544 140.038 41.792C139.654 41.024 139.462 40.16 139.462 39.2C139.462 38.24 139.654 37.384 140.038 36.632C140.438 35.88 140.99 35.288 141.694 34.856C142.398 34.424 143.198 34.208 144.094 34.208ZM144.094 36.368C143.63 36.368 143.222 36.488 142.87 36.728C142.518 36.952 142.238 37.28 142.03 37.712C141.838 38.128 141.742 38.624 141.742 39.2C141.742 39.776 141.838 40.28 142.03 40.712C142.238 41.128 142.518 41.456 142.87 41.696C143.222 41.92 143.622 42.032 144.07 42.032C144.534 42.032 144.942 41.92 145.294 41.696C145.662 41.456 145.942 41.128 146.134 40.712C146.342 40.28 146.446 39.776 146.446 39.2C146.446 38.64 146.342 38.144 146.134 37.712C145.942 37.28 145.662 36.952 145.294 36.728C144.942 36.488 144.542 36.368 144.094 36.368ZM157.102 27.584V48.92H154.654V27.584H157.102ZM155.47 36.392V38.48H151.726V36.392H155.47ZM152.542 28.016V47.936H150.118V28.016H152.542ZM145.366 28.16V32.288H142.822V28.16H145.366ZM178.487 38.168V40.232H159.167V38.168H178.487ZM170.303 39.488V44.168H167.663V39.488H170.303ZM176.375 46.4V48.512H161.519V46.4H176.375ZM164.111 42.176V46.952H161.519V42.176H164.111ZM168.815 28.04C170.319 28.04 171.647 28.216 172.799 28.568C173.951 28.92 174.839 29.432 175.463 30.104C176.087 30.76 176.399 31.528 176.399 32.408C176.399 33.288 176.087 34.064 175.463 34.736C174.839 35.392 173.951 35.896 172.799 36.248C171.647 36.6 170.319 36.776 168.815 36.776C167.295 36.776 165.959 36.6 164.807 36.248C163.671 35.88 162.783 35.368 162.143 34.712C161.519 34.056 161.207 33.288 161.207 32.408C161.207 31.528 161.519 30.76 162.143 30.104C162.783 29.432 163.679 28.92 164.831 28.568C165.983 28.216 167.311 28.04 168.815 28.04ZM168.815 30.104C167.839 30.104 166.983 30.192 166.247 30.368C165.527 30.544 164.967 30.808 164.567 31.16C164.183 31.496 163.991 31.912 163.991 32.408C163.991 32.888 164.183 33.304 164.567 33.656C164.967 33.992 165.527 34.248 166.247 34.424C166.983 34.6 167.839 34.688 168.815 34.688C169.791 34.688 170.639 34.6 171.359 34.424C172.079 34.248 172.639 33.992 173.039 33.656C173.439 33.304 173.639 32.888 173.639 32.408C173.639 31.912 173.439 31.496 173.039 31.16C172.655 30.808 172.095 30.544 171.359 30.368C170.639 30.192 169.791 30.104 168.815 30.104ZM197.639 27.584V48.92H195.191V27.584H197.639ZM195.815 35.936V38.048H191.999V35.936H195.815ZM192.791 27.992V47.864H190.391V27.992H192.791ZM181.559 41.768C183.111 41.768 184.455 41.736 185.591 41.672C186.727 41.592 187.871 41.44 189.023 41.216L189.287 43.328C188.071 43.568 186.879 43.728 185.711 43.808C184.559 43.872 183.175 43.904 181.559 43.904H180.119V41.768H181.559ZM187.991 30.104V32.192H182.663V42.776H180.119V30.104H187.991ZM215.352 28.904V30.968H202.008V28.904H215.352ZM218.976 38.024V40.136H199.68V38.024H218.976ZM210.576 39.464V48.968H207.96V39.464H210.576ZM216.6 28.904V30.776C216.6 32.328 216.552 33.728 216.456 34.976C216.376 36.208 216.152 37.648 215.784 39.296L213.24 38.984C213.608 37.432 213.832 36.056 213.912 34.856C214.008 33.64 214.056 32.28 214.056 30.776V28.904H216.6ZM235.068 30.992V33.056H224.7V30.992H235.068ZM229.932 34.208C230.812 34.208 231.604 34.424 232.308 34.856C233.012 35.288 233.564 35.88 233.964 36.632C234.364 37.384 234.564 38.24 234.564 39.2C234.564 40.16 234.364 41.024 233.964 41.792C233.564 42.544 233.012 43.136 232.308 43.568C231.604 43.984 230.812 44.192 229.932 44.192C229.036 44.192 228.236 43.984 227.532 43.568C226.828 43.136 226.276 42.544 225.876 41.792C225.492 41.024 225.3 40.16 225.3 39.2C225.3 38.24 225.492 37.384 225.876 36.632C226.276 35.88 226.828 35.288 227.532 34.856C228.236 34.424 229.036 34.208 229.932 34.208ZM229.932 36.368C229.468 36.368 229.06 36.488 228.708 36.728C228.356 36.952 228.076 37.28 227.868 37.712C227.676 38.128 227.58 38.624 227.58 39.2C227.58 39.776 227.676 40.28 227.868 40.712C228.076 41.128 228.356 41.456 228.708 41.696C229.06 41.92 229.46 42.032 229.908 42.032C230.372 42.032 230.78 41.92 231.132 41.696C231.5 41.456 231.78 41.128 231.972 40.712C232.18 40.28 232.284 39.776 232.284 39.2C232.284 38.64 232.18 38.144 231.972 37.712C231.78 37.28 231.5 36.952 231.132 36.728C230.78 36.488 230.38 36.368 229.932 36.368ZM242.94 27.584V48.92H240.492V27.584H242.94ZM241.308 36.392V38.48H237.564V36.392H241.308ZM238.38 28.016V47.936H235.956V28.016H238.38ZM231.204 28.16V32.288H228.66V28.16H231.204ZM264.324 38.168V40.232H245.004V38.168H264.324ZM256.14 39.488V44.168H253.5V39.488H256.14ZM262.212 46.4V48.512H247.356V46.4H262.212ZM249.948 42.176V46.952H247.356V42.176H249.948ZM254.652 28.04C256.156 28.04 257.484 28.216 258.636 28.568C259.788 28.92 260.676 29.432 261.3 30.104C261.924 30.76 262.236 31.528 262.236 32.408C262.236 33.288 261.924 34.064 261.3 34.736C260.676 35.392 259.788 35.896 258.636 36.248C257.484 36.6 256.156 36.776 254.652 36.776C253.132 36.776 251.796 36.6 250.644 36.248C249.508 35.88 248.62 35.368 247.98 34.712C247.356 34.056 247.044 33.288 247.044 32.408C247.044 31.528 247.356 30.76 247.98 30.104C248.62 29.432 249.516 28.92 250.668 28.568C251.82 28.216 253.148 28.04 254.652 28.04ZM254.652 30.104C253.676 30.104 252.82 30.192 252.084 30.368C251.364 30.544 250.804 30.808 250.404 31.16C250.02 31.496 249.828 31.912 249.828 32.408C249.828 32.888 250.02 33.304 250.404 33.656C250.804 33.992 251.364 34.248 252.084 34.424C252.82 34.6 253.676 34.688 254.652 34.688C255.628 34.688 256.476 34.6 257.196 34.424C257.916 34.248 258.476 33.992 258.876 33.656C259.276 33.304 259.476 32.888 259.476 32.408C259.476 31.912 259.276 31.496 258.876 31.16C258.492 30.808 257.932 30.544 257.196 30.368C256.476 30.192 255.628 30.104 254.652 30.104ZM283.477 27.584V48.92H281.029V27.584H283.477ZM281.653 35.936V38.048H277.837V35.936H281.653ZM278.629 27.992V47.864H276.229V27.992H278.629ZM267.397 41.768C268.949 41.768 270.293 41.736 271.429 41.672C272.565 41.592 273.709 41.44 274.861 41.216L275.125 43.328C273.909 43.568 272.717 43.728 271.549 43.808C270.397 43.872 269.013 43.904 267.397 43.904H265.957V41.768H267.397ZM273.829 30.104V32.192H268.501V42.776H265.957V30.104H273.829ZM295.837 30.992V33.056H285.469V30.992H295.837ZM290.701 34.208C291.581 34.208 292.373 34.424 293.077 34.856C293.781 35.288 294.333 35.88 294.733 36.632C295.133 37.384 295.333 38.24 295.333 39.2C295.333 40.16 295.133 41.024 294.733 41.792C294.333 42.544 293.781 43.136 293.077 43.568C292.373 43.984 291.581 44.192 290.701 44.192C289.805 44.192 289.005 43.984 288.301 43.568C287.597 43.136 287.045 42.544 286.645 41.792C286.261 41.024 286.069 40.16 286.069 39.2C286.069 38.24 286.261 37.384 286.645 36.632C287.045 35.88 287.597 35.288 288.301 34.856C289.005 34.424 289.805 34.208 290.701 34.208ZM290.701 36.368C290.237 36.368 289.829 36.488 289.477 36.728C289.125 36.952 288.845 37.28 288.637 37.712C288.445 38.128 288.349 38.624 288.349 39.2C288.349 39.776 288.445 40.28 288.637 40.712C288.845 41.128 289.125 41.456 289.477 41.696C289.829 41.92 290.229 42.032 290.677 42.032C291.141 42.032 291.549 41.92 291.901 41.696C292.269 41.456 292.549 41.128 292.741 40.712C292.949 40.28 293.053 39.776 293.053 39.2C293.053 38.64 292.949 38.144 292.741 37.712C292.549 37.28 292.269 36.952 291.901 36.728C291.549 36.488 291.149 36.368 290.701 36.368ZM303.709 27.584V48.92H301.261V27.584H303.709ZM302.077 36.392V38.48H298.333V36.392H302.077ZM299.149 28.016V47.936H296.725V28.016H299.149ZM291.973 28.16V32.288H289.429V28.16H291.973ZM316.334 28.28V29.36C316.334 30.72 315.966 31.968 315.23 33.104C314.494 34.224 313.462 35.168 312.134 35.936C310.822 36.704 309.318 37.216 307.622 37.472L306.614 35.408C308.07 35.2 309.366 34.792 310.502 34.184C311.638 33.576 312.518 32.856 313.142 32.024C313.766 31.176 314.078 30.288 314.078 29.36V28.28H316.334ZM316.79 28.28V29.36C316.79 30.272 317.102 31.152 317.726 32C318.366 32.848 319.254 33.576 320.39 34.184C321.542 34.792 322.838 35.2 324.278 35.408L323.246 37.472C321.566 37.216 320.07 36.704 318.758 35.936C317.446 35.152 316.414 34.192 315.662 33.056C314.926 31.92 314.558 30.688 314.558 29.36V28.28H316.79ZM316.646 40.976V48.92H314.102V40.976H316.646ZM325.07 39.368V41.48H305.774V39.368H325.07ZM333.11 34.88V38.864H330.542V34.88H333.11ZM340.766 34.88V38.864H338.198V34.88H340.766ZM335.678 27.992C337.23 27.992 338.574 28.16 339.71 28.496C340.862 28.832 341.75 29.312 342.374 29.936C342.998 30.544 343.31 31.272 343.31 32.12C343.31 32.968 342.998 33.704 342.374 34.328C341.75 34.952 340.862 35.432 339.71 35.768C338.574 36.088 337.23 36.248 335.678 36.248C334.126 36.248 332.774 36.088 331.622 35.768C330.47 35.432 329.582 34.952 328.958 34.328C328.35 33.704 328.046 32.968 328.046 32.12C328.046 31.272 328.35 30.544 328.958 29.936C329.582 29.312 330.47 28.832 331.622 28.496C332.774 28.16 334.126 27.992 335.678 27.992ZM335.678 30.008C334.638 30.008 333.742 30.088 332.99 30.248C332.254 30.408 331.686 30.648 331.286 30.968C330.902 31.288 330.71 31.672 330.71 32.12C330.71 32.584 330.902 32.976 331.286 33.296C331.686 33.6 332.254 33.832 332.99 33.992C333.742 34.152 334.638 34.232 335.678 34.232C336.718 34.232 337.606 34.152 338.342 33.992C339.094 33.832 339.662 33.6 340.046 33.296C340.446 32.976 340.646 32.584 340.646 32.12C340.646 31.672 340.446 31.288 340.046 30.968C339.662 30.648 339.094 30.408 338.342 30.248C337.606 30.088 336.718 30.008 335.678 30.008ZM345.302 38.24V40.304H326.03V38.24H345.302ZM342.95 42.008V48.92H340.382V44.048H328.166V42.008H342.95ZM353.391 29.912V31.424C353.391 32.784 353.159 34.056 352.695 35.24C352.231 36.408 351.543 37.432 350.631 38.312C349.735 39.176 348.655 39.824 347.391 40.256L346.095 38.216C347.199 37.848 348.135 37.32 348.903 36.632C349.687 35.928 350.279 35.128 350.679 34.232C351.079 33.336 351.279 32.4 351.279 31.424V29.912H353.391ZM353.871 29.912V31.424C353.871 32.304 354.055 33.152 354.423 33.968C354.807 34.768 355.375 35.48 356.127 36.104C356.879 36.728 357.791 37.208 358.863 37.544L357.615 39.56C356.367 39.16 355.303 38.56 354.423 37.76C353.559 36.96 352.903 36.016 352.455 34.928C352.007 33.84 351.783 32.672 351.783 31.424V29.912H353.871ZM358.287 29.072V31.16H346.791V29.072H358.287ZM362.967 27.584V40.328H360.399V27.584H362.967ZM365.943 32.72V34.832H362.271V32.72H365.943ZM356.103 40.784C357.559 40.784 358.823 40.944 359.895 41.264C360.967 41.584 361.783 42.056 362.343 42.68C362.919 43.288 363.207 44.008 363.207 44.84C363.207 46.12 362.567 47.112 361.287 47.816C360.023 48.536 358.295 48.896 356.103 48.896C354.647 48.896 353.375 48.736 352.287 48.416C351.215 48.096 350.391 47.632 349.815 47.024C349.239 46.416 348.951 45.688 348.951 44.84C348.951 44.008 349.239 43.288 349.815 42.68C350.391 42.056 351.215 41.584 352.287 41.264C353.375 40.944 354.647 40.784 356.103 40.784ZM356.103 42.824C355.127 42.824 354.295 42.904 353.607 43.064C352.935 43.208 352.415 43.432 352.047 43.736C351.679 44.04 351.495 44.408 351.495 44.84C351.495 45.512 351.895 46.024 352.695 46.376C353.495 46.728 354.623 46.904 356.079 46.904C357.551 46.904 358.679 46.728 359.463 46.376C360.263 46.024 360.663 45.512 360.663 44.84C360.663 44.408 360.487 44.04 360.135 43.736C359.783 43.432 359.263 43.208 358.575 43.064C357.903 42.904 357.079 42.824 356.103 42.824Z" fill="#3E3E40"/>
</svg>
